<?xml version="1.0" encoding="UTF-8"?>
<svg version="1.1" xmlns="http://www.w3.org/2000/svg" width="550" height="550">
<path d="M0 0 C181.5 0 363 0 550 0 C550 181.5 550 363 550 550 C368.5 550 187 550 0 550 C0 368.5 0 187 0 0 Z " fill="#FEFEFE" transform="translate(0,0)"/>
<path d="M0 0 C1.92238495 -0.03883049 1.92238495 -0.03883049 3.88360596 -0.07844543 C4.59310394 -0.1002034 5.30260193 -0.12196136 6.03359985 -0.14437866 C8.37645222 -0.20640809 10.71675027 -0.22305064 13.06036377 -0.23396301 C14.69459009 -0.25579362 16.32880657 -0.27837256 17.9630127 -0.30166626 C21.38956737 -0.34209829 24.81522368 -0.35721704 28.24200439 -0.35774231 C32.62027084 -0.36271461 36.99190044 -0.45486266 41.36848068 -0.56957531 C44.7455189 -0.64406715 48.12097452 -0.65913989 51.49875641 -0.65802956 C53.1112345 -0.66691944 54.72374664 -0.69689231 56.33541107 -0.74887657 C61.43422243 -0.89883062 65.89420469 -0.81533114 70.76348877 0.80900574 C74.57033351 4.75905252 76.55247051 8.77879331 78.76348877 13.80900574 C79.70194948 15.47088188 80.65697534 17.12375549 81.64239502 18.75822449 C82.53895577 20.33650041 83.43344581 21.91595421 84.32598877 23.49650574 C85.34501387 25.2897622 86.36457271 27.08271545 87.38458252 28.87541199 C88.19064941 30.29297791 88.19064941 30.29297791 89.01300049 31.73918152 C91.95297814 36.89500844 94.91358519 42.03891648 97.87796021 47.18074036 C98.87395377 48.90878753 99.86865767 50.63757783 100.86334229 52.36637878 C101.77684448 53.95059631 101.77684448 53.95059631 102.70880127 55.56681824 C103.25036865 56.50670593 103.79193604 57.44659363 104.34991455 58.41496277 C105.43177702 60.24721551 106.583192 62.03856058 107.76348877 63.80900574 C107.40021401 67.34988542 105.57944904 70.11828007 103.80645752 73.14884949 C103.19431396 74.20161072 102.58217041 75.25437195 101.95147705 76.33903503 C100.96123535 78.02573303 100.96123535 78.02573303 99.95098877 79.74650574 C99.26798752 80.91781791 98.58553868 82.08945236 97.90362549 83.26139832 C96.86439953 85.04740127 95.82488146 86.83322387 94.78356934 88.61801147 C91.15987294 94.8311841 87.60370472 101.08229209 84.06109619 107.34196472 C83.19092291 108.87180365 82.30294834 110.39167404 81.39624023 111.90014648 C80.15848722 114.10528879 79.11659061 116.22753947 78.09663391 118.52879333 C73.1992291 128.87525195 73.1992291 128.87525195 67.13928223 131.19836426 C62.73572316 131.89734863 58.35009949 131.76559715 53.90802002 131.62541199 C52.27615878 131.62281422 50.64428179 131.62542119 49.01243591 131.63296509 C45.6051936 131.6325183 42.20391475 131.58082302 38.7979126 131.48991394 C34.44114297 131.37615084 30.09302152 131.37380292 25.73517323 131.40750217 C22.3705962 131.42424177 19.00797856 131.39099127 15.64377403 131.341856 C14.03838047 131.32268074 12.43276837 131.31682015 10.82728004 131.32478523 C-1.63092771 131.33512594 -1.63092771 131.33512594 -5.46466064 127.69113159 C-7.02989247 125.11800679 -8.16269139 122.61818265 -9.23651123 119.80900574 C-10.16101074 118.23058899 -10.16101074 118.23058899 -11.10418701 116.62028503 C-11.62480713 115.71705505 -12.14542725 114.81382507 -12.68182373 113.88322449 C-13.27825684 112.8490741 -13.87468994 111.81492371 -14.48919678 110.74943542 C-15.10706055 109.67596863 -15.72492432 108.60250183 -16.36151123 107.49650574 C-17.01095703 106.37018738 -17.66040283 105.24386902 -18.32952881 104.0834198 C-21.47991004 98.61541491 -24.62053083 93.14212792 -27.74041748 87.65666199 C-28.279729 86.70895935 -28.81904053 85.76125671 -29.37469482 84.78483582 C-30.3784068 83.01892907 -31.38016068 81.25190735 -32.37957764 79.48356628 C-34.34090367 76.03147853 -36.28904903 72.68898122 -38.63104248 69.48088074 C-40.23651123 66.80900574 -40.23651123 66.80900574 -39.96209717 64.88175964 C-39.22006041 62.76201129 -38.33448476 60.92919236 -37.23260498 58.97306824 C-36.82622803 58.24652039 -36.41985107 57.51997253 -36.00115967 56.77140808 C-35.56320068 56.00006531 -35.1252417 55.22872253 -34.67401123 54.43400574 C-34.21929443 53.62528015 -33.76457764 52.81655457 -33.29608154 51.98332214 C-31.94780487 49.58906662 -30.59294697 47.19864586 -29.23651123 44.80900574 C-28.59326904 43.66947449 -27.95002686 42.52994324 -27.28729248 41.35588074 C-25.28612548 37.83104863 -23.26629195 34.31740365 -21.23651123 30.80900574 C-20.69381592 29.8708905 -20.15112061 28.93277527 -19.59197998 27.9662323 C-17.72642091 24.74544643 -15.85707153 21.52688933 -13.98651123 18.30900574 C-13.08207275 16.74932068 -13.08207275 16.74932068 -12.15936279 15.15812683 C-11.58154053 14.16635437 -11.00371826 13.17458191 -10.40838623 12.15275574 C-9.89372803 11.26781433 -9.37906982 10.38287292 -8.84881592 9.47111511 C-8.0507251 8.15337097 -8.0507251 8.15337097 -7.23651123 6.80900574 C-6.69010986 5.78240341 -6.1437085 4.75580109 -5.58074951 3.6980896 C-3.23651123 0.80900574 -3.23651123 0.80900574 0 0 Z " fill="#FCFDFE" transform="translate(385.23651123046875,186.1909942626953)"/>
<path d="M0 0 C1.92238495 -0.03883049 1.92238495 -0.03883049 3.88360596 -0.07844543 C4.59310394 -0.1002034 5.30260193 -0.12196136 6.03359985 -0.14437866 C8.37645222 -0.20640809 10.71675027 -0.22305064 13.06036377 -0.23396301 C14.69459009 -0.25579362 16.32880657 -0.27837256 17.9630127 -0.30166626 C21.38956737 -0.34209829 24.81522368 -0.35721704 28.24200439 -0.35774231 C32.62027084 -0.36271461 36.99190044 -0.45486266 41.36848068 -0.56957531 C44.7455189 -0.64406715 48.12097452 -0.65913989 51.49875641 -0.65802956 C53.1112345 -0.66691944 54.72374664 -0.69689231 56.33541107 -0.74887657 C61.43422243 -0.89883062 65.89420469 -0.81533114 70.76348877 0.80900574 C74.57033351 4.75905252 76.55247051 8.77879331 78.76348877 13.80900574 C79.70194948 15.47088188 80.65697534 17.12375549 81.64239502 18.75822449 C82.53895577 20.33650041 83.43344581 21.91595421 84.32598877 23.49650574 C85.34501387 25.2897622 86.36457271 27.08271545 87.38458252 28.87541199 C88.19064941 30.29297791 88.19064941 30.29297791 89.01300049 31.73918152 C91.95297814 36.89500844 94.91358519 42.03891648 97.87796021 47.18074036 C98.87395377 48.90878753 99.86865767 50.63757783 100.86334229 52.36637878 C101.77684448 53.95059631 101.77684448 53.95059631 102.70880127 55.56681824 C103.25036865 56.50670593 103.79193604 57.44659363 104.34991455 58.41496277 C105.43177702 60.24721551 106.583192 62.03856058 107.76348877 63.80900574 C107.40021401 67.34988542 105.57944904 70.11828007 103.80645752 73.14884949 C103.19431396 74.20161072 102.58217041 75.25437195 101.95147705 76.33903503 C100.96123535 78.02573303 100.96123535 78.02573303 99.95098877 79.74650574 C99.26798752 80.91781791 98.58553868 82.08945236 97.90362549 83.26139832 C96.86439953 85.04740127 95.82488146 86.83322387 94.78356934 88.61801147 C91.15987294 94.8311841 87.60370472 101.08229209 84.06109619 107.34196472 C83.19092291 108.87180365 82.30294834 110.39167404 81.39624023 111.90014648 C80.15848722 114.10528879 79.11659061 116.22753947 78.09663391 118.52879333 C73.1992291 128.87525195 73.1992291 128.87525195 67.13928223 131.19836426 C62.73572316 131.89734863 58.35009949 131.76559715 53.90802002 131.62541199 C52.27615878 131.62281422 50.64428179 131.62542119 49.01243591 131.63296509 C45.6051936 131.6325183 42.20391475 131.58082302 38.7979126 131.48991394 C34.44114297 131.37615084 30.09302152 131.37380292 25.73517323 131.40750217 C22.3705962 131.42424177 19.00797856 131.39099127 15.64377403 131.341856 C14.03838047 131.32268074 12.43276837 131.31682015 10.82728004 131.32478523 C-1.63092771 131.33512594 -1.63092771 131.33512594 -5.46466064 127.69113159 C-7.02989247 125.11800679 -8.16269139 122.61818265 -9.23651123 119.80900574 C-10.16101074 118.23058899 -10.16101074 118.23058899 -11.10418701 116.62028503 C-11.62480713 115.71705505 -12.14542725 114.81382507 -12.68182373 113.88322449 C-13.27825684 112.8490741 -13.87468994 111.81492371 -14.48919678 110.74943542 C-15.10706055 109.67596863 -15.72492432 108.60250183 -16.36151123 107.49650574 C-17.01095703 106.37018738 -17.66040283 105.24386902 -18.32952881 104.0834198 C-21.47991004 98.61541491 -24.62053083 93.14212792 -27.74041748 87.65666199 C-28.279729 86.70895935 -28.81904053 85.76125671 -29.37469482 84.78483582 C-30.3784068 83.01892907 -31.38016068 81.25190735 -32.37957764 79.48356628 C-34.34090367 76.03147853 -36.28904903 72.68898122 -38.63104248 69.48088074 C-40.23651123 66.80900574 -40.23651123 66.80900574 -39.96209717 64.88175964 C-39.22006041 62.76201129 -38.33448476 60.92919236 -37.23260498 58.97306824 C-36.82622803 58.24652039 -36.41985107 57.51997253 -36.00115967 56.77140808 C-35.56320068 56.00006531 -35.1252417 55.22872253 -34.67401123 54.43400574 C-34.21929443 53.62528015 -33.76457764 52.81655457 -33.29608154 51.98332214 C-31.94780487 49.58906662 -30.59294697 47.19864586 -29.23651123 44.80900574 C-28.59326904 43.66947449 -27.95002686 42.52994324 -27.28729248 41.35588074 C-25.28612548 37.83104863 -23.26629195 34.31740365 -21.23651123 30.80900574 C-20.69381592 29.8708905 -20.15112061 28.93277527 -19.59197998 27.9662323 C-17.72642091 24.74544643 -15.85707153 21.52688933 -13.98651123 18.30900574 C-13.08207275 16.74932068 -13.08207275 16.74932068 -12.15936279 15.15812683 C-11.58154053 14.16635437 -11.00371826 13.17458191 -10.40838623 12.15275574 C-9.89372803 11.26781433 -9.37906982 10.38287292 -8.84881592 9.47111511 C-8.0507251 8.15337097 -8.0507251 8.15337097 -7.23651123 6.80900574 C-6.69010986 5.78240341 -6.1437085 4.75580109 -5.58074951 3.6980896 C-3.23651123 0.80900574 -3.23651123 0.80900574 0 0 Z M-0.23651123 6.80900574 C-4.52651123 14.39900574 -8.81651123 21.98900574 -13.23651123 29.80900574 C-18.48651123 38.74650574 -18.48651123 38.74650574 -20.87322998 42.78556824 C-23.3822342 47.04511361 -25.85435021 51.32472482 -28.29901123 55.62150574 C-28.68154053 56.28593689 -29.06406982 56.95036804 -29.45819092 57.63493347 C-31.97609581 62.00086114 -31.97609581 62.00086114 -33.23651123 66.80900574 C-32.45286031 68.72077473 -32.45286031 68.72077473 -31.11151123 70.52384949 C-30.64358154 71.22236023 -30.17565186 71.92087097 -29.69354248 72.64054871 C-28.97231201 73.71393494 -28.97231201 73.71393494 -28.23651123 74.80900574 C-27.41169114 76.1779599 -26.59910557 77.55436122 -25.79901123 78.93791199 C-25.38530273 79.65173035 -24.97159424 80.36554871 -24.54534912 81.10099792 C-24.11343262 81.8502655 -23.68151611 82.59953308 -23.23651123 83.37150574 C-22.7730127 84.17362488 -22.30951416 84.97574402 -21.83197021 85.8021698 C-16.39494763 95.23390495 -11.04936447 104.71758613 -5.70941162 114.20451355 C-3.89554237 117.41193228 -2.06467763 120.60971454 -0.23651123 123.80900574 C22.20348877 123.80900574 44.64348877 123.80900574 67.76348877 123.80900574 C72.71348877 114.89900574 77.66348877 105.98900574 82.76348877 96.80900574 C86.42682258 90.52305794 90.10244476 84.24929919 93.84210205 78.00920105 C94.84070937 76.34067725 95.83350995 74.66868218 96.82598877 72.99650574 C97.37384033 72.08256042 97.92169189 71.16861511 98.48614502 70.22697449 C100.20962763 67.16931078 100.20962763 67.16931078 100.76348877 63.80900574 C99.53276471 61.29217504 98.2526525 59.04245686 96.76348877 56.68400574 C95.83728492 55.16552512 94.91292891 53.64591645 93.99005127 52.12541199 C93.47732666 51.28639343 92.96460205 50.44737488 92.43634033 49.58293152 C89.25622744 44.30966201 86.20650033 38.96049272 83.13848877 33.62150574 C82.53005127 32.56624695 81.92161377 31.51098816 81.29473877 30.42375183 C76.76372879 22.56376215 72.26475205 14.68621648 67.76348877 6.80900574 C45.32348877 6.80900574 22.88348877 6.80900574 -0.23651123 6.80900574 Z " fill="#C3E7FF" transform="translate(385.23651123046875,186.1909942626953)"/>
<path d="M0 0 C6.43390363 4.94838454 12.38139981 10.14419944 15 18 C15 20.31 15 22.62 15 25 C-2.82 25 -20.64 25 -39 25 C-37.74992204 14.9993763 -35.92155684 9.84776667 -28.05859375 3.54296875 C-27.37925781 3.03378906 -26.69992187 2.52460938 -26 2 C-25.45472656 1.56300781 -24.90945313 1.12601562 -24.34765625 0.67578125 C-17.6625129 -3.98257047 -7.11396276 -3.29350128 0 0 Z " fill="#06679F" transform="translate(439,258)"/>
<path d="M0 0 C4.87986993 2.2656539 7.66705454 5.15465173 10 10 C10.79307322 14.96884647 10.60244461 18.77193984 8.375 23.3125 C1.86609457 30.67784035 1.86609457 30.67784035 -2.3984375 31.4140625 C-7.61881249 31.58650732 -11.60819526 31.03243661 -16 28 C-20.77171662 22.71242212 -21.50910507 19.15815568 -21.4921875 12.12890625 C-20.69821069 7.08148225 -17.84877452 4.17828665 -14 1 C-9.81388848 -1.09305576 -4.55867052 -0.42364608 0 0 Z " fill="#05679F" transform="translate(433,219)"/>
<path d="M0 0 C6.78087633 -0.10128166 13.56155822 -0.17141525 20.34301758 -0.21972656 C22.65070891 -0.23986263 24.95834911 -0.26717356 27.26586914 -0.30175781 C30.57971808 -0.35018715 33.89289347 -0.37294884 37.20703125 -0.390625 C38.2414888 -0.41127014 39.27594635 -0.43191528 40.3417511 -0.45318604 C41.78290535 -0.45363922 41.78290535 -0.45363922 43.25317383 -0.45410156 C44.09922684 -0.46298401 44.94527985 -0.47186646 45.81697083 -0.48101807 C48 0 48 0 49.79667664 2.02838135 C50.3923217 3.00433258 50.3923217 3.00433258 51 4 C51.66 2.68 52.32 1.36 53 0 C68.84 0 84.68 0 101 0 C101 2.64 101 5.28 101 8 C76.58 8 52.16 8 27 8 C26.67 7.34 26.34 6.68 26 6 C25.67 6.66 25.34 7.32 25 8 C16.75 8 8.5 8 0 8 C0 5.36 0 2.72 0 0 Z " fill="#2070C1" transform="translate(240,239)"/>
<path d="M0 0 C11.83034731 -0.0694002 23.66064649 -0.1227604 35.49115562 -0.15543652 C40.98408555 -0.17111656 46.47687659 -0.19239742 51.96972656 -0.22631836 C57.26705929 -0.2588285 62.56425813 -0.27683538 67.86168289 -0.28463173 C69.88638035 -0.29019028 71.91107019 -0.30104422 73.93571091 -0.31719017 C76.76378169 -0.3388536 79.59129368 -0.3419716 82.41943359 -0.34057617 C83.26316025 -0.351362 84.1068869 -0.36214783 84.97618103 -0.3732605 C87.30477905 -0.36076355 87.30477905 -0.36076355 91 0 C93 3 93 3 93 8 C62.31 8 31.62 8 0 8 C0 5.36 0 2.72 0 0 Z " fill="#2070C1" transform="translate(123,207)"/>
<path d="M0 0 C30.69 0 61.38 0 93 0 C92 7 92 7 91 8 C88.16959328 8.09520906 85.36365007 8.12553631 82.53295898 8.11352539 C81.64523804 8.11367142 80.75751709 8.11381744 79.84289551 8.1139679 C76.89393716 8.11326843 73.94504113 8.10547448 70.99609375 8.09765625 C68.95728083 8.09579219 66.91846746 8.09436823 64.87965393 8.09336853 C59.50215426 8.08954241 54.12468142 8.07971132 48.74719238 8.06866455 C43.26440799 8.05845245 37.78161928 8.05387134 32.29882812 8.04882812 C21.53254027 8.03808914 10.76627236 8.02101159 0 8 C0 5.36 0 2.72 0 0 Z " fill="#2171C1" transform="translate(123,287)"/>
<path d="M0 0 C27.72 0 55.44 0 84 0 C84 0.66 84 1.32 84 2 C82.27559635 2.98753064 80.54524974 3.96468806 78.8125 4.9375 C77.84957031 5.48277344 76.88664062 6.02804687 75.89453125 6.58984375 C71.01005808 8.96945888 66.57801952 9.12352137 61.19018555 9.11352539 C60.52621262 9.11367142 59.86223969 9.11381744 59.17814636 9.1139679 C56.99763651 9.11327483 54.81721356 9.10551099 52.63671875 9.09765625 C51.1192886 9.09578992 49.60185785 9.09436703 48.08442688 9.09336853 C44.10108765 9.08956032 40.1177852 9.07974459 36.13446045 9.06866455 C32.06555682 9.05841389 27.99664721 9.05386309 23.92773438 9.04882812 C15.95180609 9.03812074 7.97590763 9.02106478 0 9 C0 6.03 0 3.06 0 0 Z " fill="#2F7AC5" transform="translate(122,303)"/>
<path d="M0 0 C9.06711622 -0.13965081 18.13385647 -0.24594767 27.20181751 -0.31087303 C31.41349871 -0.34205047 35.62443866 -0.38426953 39.83569336 -0.45263672 C43.90767783 -0.51832151 47.97895405 -0.55380795 52.05142784 -0.56926346 C53.59708479 -0.58026269 55.14270744 -0.60174014 56.68805885 -0.63438034 C66.29058275 -0.82894474 74.07627657 -0.13725397 82 6 C82.495 6.99 82.495 6.99 83 8 C55.61 8 28.22 8 0 8 C0 5.36 0 2.72 0 0 Z " fill="#2171C1" transform="translate(123,191)"/>
<path d="M0 0 C23.43 0 46.86 0 71 0 C68.47392226 6.31519435 68.47392226 6.31519435 66 8 C63.13362122 8.36076355 63.13362122 8.36076355 59.60083008 8.34057617 C58.95665634 8.34101425 58.3124826 8.34145233 57.64878845 8.34190369 C55.52205979 8.33981559 53.39612198 8.31648513 51.26953125 8.29296875 C49.79408702 8.28737283 48.31863722 8.28310271 46.84318542 8.28010559 C42.96160466 8.26865637 39.08036117 8.23918887 35.19891357 8.20599365 C31.23747317 8.17529424 27.27597822 8.16160055 23.31445312 8.14648438 C15.54281506 8.11431894 7.77145481 8.06312205 0 8 C0 5.36 0 2.72 0 0 Z " fill="#1D6EC0" transform="translate(140,239)"/>
<path d="M0 0 C8.38850469 -0.11595557 16.77667344 -0.2047454 25.16578197 -0.25906086 C29.06141191 -0.28513253 32.95649273 -0.32048427 36.85180664 -0.37719727 C40.61252026 -0.43160664 44.37270644 -0.46143883 48.13378334 -0.47438622 C49.56714492 -0.48361035 51.00047828 -0.50162371 52.43361473 -0.52865028 C54.44398106 -0.56504759 56.45488047 -0.56704327 58.46557617 -0.56762695 C59.60919113 -0.57873001 60.75280609 -0.58983307 61.93107605 -0.60127258 C65.96950638 0.18994853 67.44124952 1.84978849 70 5 C70.495 6.485 70.495 6.485 71 8 C47.57 8 24.14 8 0 8 C0 5.36 0 2.72 0 0 Z " fill="#1F70C1" transform="translate(140,255)"/>
<path d="M0 0 C19.47 0 38.94 0 59 0 C59 2.97 59 5.94 59 9 C39.53 9 20.06 9 0 9 C0 6.03 0 3.06 0 0 Z " fill="#2E79C5" transform="translate(56,303)"/>
<path d="M0 0 C19.47 0 38.94 0 59 0 C59 2.97 59 5.94 59 9 C39.53 9 20.06 9 0 9 C0 6.03 0 3.06 0 0 Z " fill="#2F7AC5" transform="translate(56,287)"/>
<path d="M0 0 C19.14 0 38.28 0 58 0 C58 2.64 58 5.28 58 8 C38.86 8 19.72 8 0 8 C0 5.36 0 2.72 0 0 Z " fill="#2070C1" transform="translate(56,207)"/>
<path d="M0 0 C19.14 0 38.28 0 58 0 C58 2.64 58 5.28 58 8 C38.86 8 19.72 8 0 8 C0 5.36 0 2.72 0 0 Z " fill="#2070C1" transform="translate(56,191)"/>
<path d="M0 0 C1.09570312 0.00902344 2.19140625 0.01804688 3.3203125 0.02734375 C4.16335938 0.03894531 5.00640625 0.05054688 5.875 0.0625 C5.875 1.0525 5.875 2.0425 5.875 3.0625 C4.54166667 4.39583333 3.20833333 5.72916667 1.875 7.0625 C-0.38217257 11.12541062 -1.12927682 15.50977843 -0.125 20.0625 C1.27328038 22.33877039 2.80297862 24.29280893 4.5625 26.30078125 C5.875 28.0625 5.875 28.0625 5.875 31.0625 C-3.85532529 31.68579486 -3.85532529 31.68579486 -8.5625 29.375 C-12.07764846 26.20279285 -14.77097464 23.75878104 -15.76171875 19.01171875 C-15.85506081 13.0162862 -15.79012151 8.97677389 -11.75 4.3125 C-7.77621774 0.4204828 -5.55867576 -0.05913485 0 0 Z " fill="#2AADE3" transform="translate(409.125,218.9375)"/>
<path d="M0 0 C17.82 0 35.64 0 54 0 C54.66 2.64 55.32 5.28 56 8 C37.52 8 19.04 8 0 8 C0 5.36 0 2.72 0 0 Z " fill="#2071C1" transform="translate(223,207)"/>
<path d="M0 0 C1.40897804 0.00333092 1.40897804 0.00333092 2.84642029 0.00672913 C3.90744461 0.00680466 4.96846893 0.00688019 6.06164551 0.00695801 C7.21579453 0.01211929 8.36994354 0.01728058 9.55906677 0.02259827 C10.73404221 0.02401321 11.90901764 0.02542816 13.11959839 0.02688599 C16.88981116 0.0325046 20.65996556 0.04506026 24.43016052 0.05775452 C26.97898779 0.06276712 29.52781599 0.06733044 32.0766449 0.07142639 C38.34033685 0.08248007 44.60399452 0.0992363 50.86766052 0.12025452 C50.86766052 2.76025452 50.86766052 5.40025452 50.86766052 8.12025452 C32.71766052 8.12025452 14.56766052 8.12025452 -4.13233948 8.12025452 C-2.996444 0.16898619 -2.996444 0.16898619 0 0 Z " fill="#2070C1" transform="translate(306.13233947753906,206.87974548339844)"/>
<path d="M0 0 C12 0 12 0 17 3 C20.06929923 7.42202989 19.74381139 12.85282516 19 18 C17.14990787 21.6717213 14.95412948 23.68195684 11 25 C7.37 25 3.74 25 0 25 C0 16.75 0 8.5 0 0 Z " fill="#EFEFEF" transform="translate(181,334)"/>
<path d="M0 0 C15.84 0 31.68 0 48 0 C51 6 51 6 51 8 C34.17 8 17.34 8 0 8 C0 5.36 0 2.72 0 0 Z " fill="#2171C1" transform="translate(223,191)"/>
<path d="M0 0 C0.85049423 0.00222061 1.70098846 0.00444122 2.57725525 0.00672913 C4.01863609 0.00684242 4.01863609 0.00684242 5.48913574 0.00695801 C7.05630592 0.01469994 7.05630592 0.01469994 8.65513611 0.02259827 C9.71913132 0.02401321 10.78312653 0.02542816 11.87936401 0.02688599 C15.29293069 0.03250388 18.70643286 0.04505941 22.11997986 0.05775452 C24.42792162 0.06276721 26.73586441 0.06733052 29.04380798 0.07142639 C34.71505412 0.08247912 40.38626238 0.09923465 46.05747986 0.12025452 C46.05747986 2.76025452 46.05747986 5.40025452 46.05747986 8.12025452 C29.22747986 8.12025452 12.39747986 8.12025452 -4.94252014 8.12025452 C-2.66966731 0.16526961 -2.66966731 0.16526961 0 0 Z " fill="#2372C2" transform="translate(311.94252014160156,190.87974548339844)"/>
<path d="M0 0 C14.19 0 28.38 0 43 0 C43 2.97 43 5.94 43 9 C28.81 9 14.62 9 0 9 C0 6.03 0 3.06 0 0 Z " fill="#317CC6" transform="translate(315,303)"/>
<path d="M0 0 C14.19 0 28.38 0 43 0 C43 2.97 43 5.94 43 9 C28.81 9 14.62 9 0 9 C0 6.03 0 3.06 0 0 Z " fill="#317BC6" transform="translate(223,303)"/>
<path d="M0 0 C-5 4 -5 4 -7.5 5.75 C-13.8635692 11.47721228 -15.73281756 17.70571493 -17 26 C-21.95 26 -26.9 26 -32 26 C-31.17408084 15.85299318 -28.55730955 10.79642002 -21 4 C-14.78648894 -1.06201635 -7.66816518 -0.1227998 0 0 Z " fill="#29ACE3" transform="translate(414,257)"/>
<path d="M0 0 C14.19 0 28.38 0 43 0 C43 2.64 43 5.28 43 8 C28.15 8 13.3 8 -2 8 C-1 2 -1 2 0 0 Z " fill="#1F70C1" transform="translate(298,223)"/>
<path d="M0 0 C14.19 0 28.38 0 43 0 C43.66 2.64 44.32 5.28 45 8 C30.15 8 15.3 8 0 8 C0 5.36 0 2.72 0 0 Z " fill="#2070C1" transform="translate(240,223)"/>
<path d="M0 0 C14.19 0 28.38 0 43 0 C43 2.64 43 5.28 43 8 C28.81 8 14.62 8 0 8 C0 5.36 0 2.72 0 0 Z " fill="#1F70C1" transform="translate(315,287)"/>
<path d="M0 0 C14.19 0 28.38 0 43 0 C43 2.64 43 5.28 43 8 C28.81 8 14.62 8 0 8 C0 5.36 0 2.72 0 0 Z " fill="#1F70C0" transform="translate(223,287)"/>
<path d="M0 0 C1.76923828 0.04060547 1.76923828 0.04060547 3.57421875 0.08203125 C4.47785156 0.11683594 5.38148438 0.15164063 6.3125 0.1875 C6.3125 0.8475 6.3125 1.5075 6.3125 2.1875 C5.3225 2.1875 4.3325 2.1875 3.3125 2.1875 C3.6528125 3.54875 3.6528125 3.54875 4 4.9375 C4.3125 8.1875 4.3125 8.1875 3.25 10.5 C0.70562017 12.71607275 -1.37894476 12.8934062 -4.6875 13.1875 C-5.0175 14.1775 -5.3475 15.1675 -5.6875 16.1875 C-4.45 16.125625 -3.2125 16.06375 -1.9375 16 C1.09461302 15.98387174 2.13498296 16.08098977 4.8125 17.6875 C5.3075 18.1825 5.8025 18.6775 6.3125 19.1875 C6.07618265 22.7322602 5.91143431 24.60728239 3.3125 27.125 C-0.80973008 28.58495649 -4.47253662 28.28885585 -8.6875 27.1875 C-10.6875 25.1875 -10.6875 25.1875 -10.9375 22.75 C-10.6875 20.1875 -10.6875 20.1875 -8.6875 17.1875 C-7.86518475 14.17135705 -7.86518475 14.17135705 -7.6875 11.1875 C-8.3475 10.5275 -9.0075 9.8675 -9.6875 9.1875 C-10.236708 4.02494482 -10.236708 4.02494482 -8.5859375 1.5078125 C-5.75035955 -0.46425612 -3.40353691 -0.10109516 0 0 Z " fill="#151515" transform="translate(362.6875,339.8125)"/>
<path d="M0 0 C13.53 0 27.06 0 41 0 C39 7 39 7 38 8 C35.40640678 8.08851529 32.83960309 8.11525945 30.24609375 8.09765625 C29.47064713 8.0962413 28.6952005 8.09482635 27.89625549 8.09336853 C25.40996506 8.08775345 22.9237634 8.07519846 20.4375 8.0625 C18.75586067 8.05748694 17.07421994 8.0529237 15.39257812 8.04882812 C11.26168434 8.03777913 7.13085724 8.02050445 3 8 C0 2.25 0 2.25 0 0 Z " fill="#2070C1" transform="translate(270,255)"/>
<path d="M0 0 C1.65 0 3.3 0 5 0 C7.31 6.27 9.62 12.54 12 19 C15.23265082 11.75438899 15.23265082 11.75438899 18.25 4.4375 C18.75273438 3.16712891 18.75273438 3.16712891 19.265625 1.87109375 C19.50796875 1.25363281 19.7503125 0.63617188 20 0 C21.65 0 23.3 0 25 0 C25 8.58 25 17.16 25 26 C24.01 26 23.02 26 22 26 C21.505 16.595 21.505 16.595 21 7 C18.69 13.27 16.38 19.54 14 26 C13.01 26 12.02 26 11 26 C8.69 20.06 6.38 14.12 4 8 C3.67 13.94 3.34 19.88 3 26 C2.01 26 1.02 26 0 26 C0 17.42 0 8.84 0 0 Z " fill="#1A1A1A" transform="translate(60,333)"/>
<path d="M0 0 C1.65 0 3.3 0 5 0 C5 8.58 5 17.16 5 26 C4.01 26 3.02 26 2 26 C1.505 16.595 1.505 16.595 1 7 C-1.31 13.27 -3.62 19.54 -6 26 C-6.99 26 -7.98 26 -9 26 C-11.31 19.73 -13.62 13.46 -16 7 C-16.33 13.27 -16.66 19.54 -17 26 C-17.66 26 -18.32 26 -19 26 C-19 17.75 -19 9.5 -19 1 C-16.525 1.495 -16.525 1.495 -14 2 C-12.64490443 4.70719315 -11.66631354 7.08756783 -10.75 9.9375 C-10.24509107 11.40505096 -9.7398957 12.87250341 -9.234375 14.33984375 C-8.82703125 15.54769531 -8.4196875 16.75554687 -8 18 C-7.67 18.66 -7.34 19.32 -7 20 C-4.69 13.4 -2.38 6.8 0 0 Z " fill="#080808" transform="translate(284,333)"/>
<path d="M0 0 C8.58 0 17.16 0 26 0 C26 2.97 26 5.94 26 9 C21.85418113 9.02886751 17.70838784 9.04675327 13.5625 9.0625 C11.78649414 9.07506836 11.78649414 9.07506836 9.97460938 9.08789062 C8.84990234 9.09111328 7.72519531 9.09433594 6.56640625 9.09765625 C5.00321655 9.10551147 5.00321655 9.10551147 3.40844727 9.11352539 C1 9 1 9 0 8 C0 5.36 0 2.72 0 0 Z " fill="#3C83C9" transform="translate(315,271)"/>
<path d="M0 0 C8.58 0 17.16 0 26 0 C26 2.64 26 5.28 26 8 C25 9 25 9 22.59155273 9.11352539 C21.54942627 9.10828857 20.5072998 9.10305176 19.43359375 9.09765625 C18.30888672 9.09443359 17.18417969 9.09121094 16.02539062 9.08789062 C14.84138672 9.07951172 13.65738281 9.07113281 12.4375 9.0625 C11.24962891 9.05798828 10.06175781 9.05347656 8.83789062 9.04882812 C5.89187774 9.03699675 2.94596319 9.02051287 0 9 C0 6.03 0 3.06 0 0 Z " fill="#3D83C9" transform="translate(240,271)"/>
<path d="M0 0 C8.58 0 17.16 0 26 0 C27 2 27 2 27 8 C18.09 8 9.18 8 0 8 C0 5.36 0 2.72 0 0 Z " fill="#2B77C4" transform="translate(190,271)"/>
<path d="M0 0 C9.57 0 19.14 0 29 0 C28.34 2.64 27.68 5.28 27 8 C19.08 8 11.16 8 3 8 C0 2 0 2 0 0 Z " fill="#2071C1" transform="translate(276,271)"/>
<path d="M0 0 C8.91 0 17.82 0 27 0 C26.67 2.64 26.34 5.28 26 8 C17.42 8 8.84 8 0 8 C0 5.36 0 2.72 0 0 Z " fill="#2372C2" transform="translate(190,223)"/>
<path d="M0 0 C8.58 0 17.16 0 26 0 C26 2.64 26 5.28 26 8 C17.42 8 8.84 8 0 8 C0 5.36 0 2.72 0 0 Z " fill="#2372C2" transform="translate(72,271)"/>
<path d="M0 0 C8.58 0 17.16 0 26 0 C26 2.64 26 5.28 26 8 C17.42 8 8.84 8 0 8 C0 5.36 0 2.72 0 0 Z " fill="#2372C2" transform="translate(315,255)"/>
<path d="M0 0 C8.58 0 17.16 0 26 0 C26 2.64 26 5.28 26 8 C17.42 8 8.84 8 0 8 C0 5.36 0 2.72 0 0 Z " fill="#2473C2" transform="translate(240,255)"/>
<path d="M0 0 C8.58 0 17.16 0 26 0 C26 2.64 26 5.28 26 8 C17.42 8 8.84 8 0 8 C0 5.36 0 2.72 0 0 Z " fill="#2272C1" transform="translate(72,239)"/>
<path d="M0 0 C8.58 0 17.16 0 26 0 C26 2.64 26 5.28 26 8 C17.42 8 8.84 8 0 8 C0 5.36 0 2.72 0 0 Z " fill="#2271C1" transform="translate(72,223)"/>
<path d="M0 0 C8.25 0 16.5 0 25 0 C25 2.64 25 5.28 25 8 C16.75 8 8.5 8 0 8 C0 5.36 0 2.72 0 0 Z " fill="#1F70C0" transform="translate(140,271)"/>
<path d="M0 0 C8.25 0 16.5 0 25 0 C25 2.64 25 5.28 25 8 C16.75 8 8.5 8 0 8 C0 5.36 0 2.72 0 0 Z " fill="#2070C1" transform="translate(73,255)"/>
<path d="M0 0 C8.25 0 16.5 0 25 0 C25 2.64 25 5.28 25 8 C16.75 8 8.5 8 0 8 C0 5.36 0 2.72 0 0 Z " fill="#1E6FC0" transform="translate(140,223)"/>
<path d="M0 0 C1.43655854 -0.08131463 2.8744483 -0.13933559 4.3125 -0.1875 C5.51326172 -0.23970703 5.51326172 -0.23970703 6.73828125 -0.29296875 C9 0 9 0 10.78125 1 C12.72956791 4.19723965 12.31086651 7.56558588 12.1875 11.1875 C12.17396484 11.93708984 12.16042969 12.68667969 12.14648438 13.45898438 C12.11118539 15.30629767 12.05737917 17.15324066 12 19 C11.360625 18.814375 10.72125 18.62875 10.0625 18.4375 C9.0415625 18.2209375 9.0415625 18.2209375 8 18 C7.67 18.33 7.34 18.66 7 19 C1.26388889 19.27314815 1.26388889 19.27314815 -1 19 C-3 17 -3 17 -3.3125 14.0625 C-3 11 -3 11 -1.7734375 9.3203125 C0.52247625 7.61101989 1.85858712 7.68950379 4.6875 7.8125 C5.49574219 7.83957031 6.30398437 7.86664063 7.13671875 7.89453125 C7.75160156 7.92933594 8.36648437 7.96414063 9 8 C8.34 6.35 7.68 4.7 7 3 C4.69 3 2.38 3 0 3 C0 2.01 0 1.02 0 0 Z " fill="#191919" transform="translate(238,340)"/>
<path d="M0 0 C1.45792884 -0.05399736 2.91642712 -0.09279177 4.375 -0.125 C5.18710938 -0.14820313 5.99921875 -0.17140625 6.8359375 -0.1953125 C9 0 9 0 11 2 C11.14517744 4.9093558 11.18630796 7.719946 11.125 10.625 C11.11597656 11.42679687 11.10695313 12.22859375 11.09765625 13.0546875 C11.07406223 15.03658523 11.03819065 17.01832981 11 19 C10.34 19 9.68 19 9 19 C9 18.34 9 17.68 9 17 C8.01 17.66 7.02 18.32 6 19 C3.27716095 19.31254378 0.75557514 19.13333428 -2 19 C-3.89128342 17.10871658 -3.2366852 14.42932274 -3.328125 11.91015625 C-3.16570312 10.96462891 -3.16570312 10.96462891 -3 10 C-0.09907498 8.06604999 0.89674737 7.69868059 4.1875 7.375 C5.445625 7.25125 6.70375 7.1275 8 7 C7.67 5.68 7.34 4.36 7 3 C4.36 3 1.72 3 -1 3 C-0.67 2.01 -0.34 1.02 0 0 Z " fill="#101010" transform="translate(93,340)"/>
<path d="M0 0 C0.66 0 1.32 0 2 0 C2 0.66 2 1.32 2 2 C2.99 1.34 3.98 0.68 5 0 C8.4375 -0.125 8.4375 -0.125 12 0 C14.02374289 0 16.04919055 -0.00250593 18.0703125 -0.10546875 C20.04561402 -0.1843306 22.02543505 -0.09554347 24 0 C26.52775351 3.79163027 26.22443035 6.80874031 26.125 11.1875 C26.11597656 11.93708984 26.10695313 12.68667969 26.09765625 13.45898438 C26.07412578 15.30612654 26.03825561 17.15310412 26 19 C25.01 19 24.02 19 23 19 C22.67 13.72 22.34 8.44 22 3 C20.35 3 18.7 3 17 3 C14.65229357 6.52155964 14.62330386 8.50771843 14.375 12.6875 C14.30023438 13.86699219 14.22546875 15.04648437 14.1484375 16.26171875 C14.09945313 17.16535156 14.05046875 18.06898438 14 19 C13.34 19 12.68 19 12 19 C11.93941406 17.92878906 11.87882812 16.85757812 11.81640625 15.75390625 C11.73201463 14.35675609 11.64736594 12.95962143 11.5625 11.5625 C11.52318359 10.85544922 11.48386719 10.14839844 11.44335938 9.41992188 C11.52375562 5.91309581 11.52375562 5.91309581 10 3 C7.5 2.83333333 7.5 2.83333333 5 3 C3.00383446 4.99616554 3.59016573 8.81701963 3.4375 11.5625 C3.39431641 12.27341797 3.35113281 12.98433594 3.30664062 13.71679688 C3.20028223 15.47761912 3.09961154 17.2387832 3 19 C2.01 19 1.02 19 0 19 C0 12.73 0 6.46 0 0 Z " fill="#030303" transform="translate(392,340)"/>
<path d="M0 0 C1.45792884 -0.05399736 2.91642712 -0.09279177 4.375 -0.125 C5.18710937 -0.14820313 5.99921875 -0.17140625 6.8359375 -0.1953125 C9 0 9 0 11 2 C11.14517744 4.9093558 11.18630796 7.719946 11.125 10.625 C11.11597656 11.42679687 11.10695313 12.22859375 11.09765625 13.0546875 C11.07406223 15.03658523 11.03819065 17.01832981 11 19 C9.68 19 8.36 19 7 19 C5.97519531 19.03480469 5.97519531 19.03480469 4.9296875 19.0703125 C2.95368583 19.1229057 0.97567379 19.06373141 -1 19 C-3 17 -3 17 -3.3125 14.0625 C-3 11 -3 11 -1.7734375 9.3203125 C0.52247625 7.61101989 1.85858712 7.68950379 4.6875 7.8125 C5.49574219 7.83957031 6.30398438 7.86664063 7.13671875 7.89453125 C7.75160156 7.92933594 8.36648438 7.96414063 9 8 C8.34 6.35 7.68 4.7 7 3 C4.36 3 1.72 3 -1 3 C-0.67 2.01 -0.34 1.02 0 0 Z " fill="#060606" transform="translate(337,340)"/>
<path d="M0 0 C1.45792884 -0.05399736 2.91642712 -0.09279177 4.375 -0.125 C5.18710937 -0.14820313 5.99921875 -0.17140625 6.8359375 -0.1953125 C9 0 9 0 11 2 C11.14517744 4.9093558 11.18630796 7.719946 11.125 10.625 C11.11597656 11.42679687 11.10695313 12.22859375 11.09765625 13.0546875 C11.07406223 15.03658523 11.03819065 17.01832981 11 19 C9.68 19 8.36 19 7 19 C5.97519531 19.03480469 5.97519531 19.03480469 4.9296875 19.0703125 C2.95368583 19.1229057 0.97567379 19.06373141 -1 19 C-3 17 -3 17 -3.3125 14.0625 C-3 11 -3 11 -1.7734375 9.3203125 C0.52247625 7.61101989 1.85858712 7.68950379 4.6875 7.8125 C5.49574219 7.83957031 6.30398438 7.86664063 7.13671875 7.89453125 C7.75160156 7.92933594 8.36648438 7.96414063 9 8 C8.34 6.35 7.68 4.7 7 3 C4.36 3 1.72 3 -1 3 C-0.67 2.01 -0.34 1.02 0 0 Z " fill="#070707" transform="translate(297,340)"/>
<path d="M0 0 C1.45792884 -0.05399736 2.91642712 -0.09279177 4.375 -0.125 C5.18710938 -0.14820313 5.99921875 -0.17140625 6.8359375 -0.1953125 C9 0 9 0 11 2 C11.14517744 4.9093558 11.18630796 7.719946 11.125 10.625 C11.11597656 11.42679687 11.10695312 12.22859375 11.09765625 13.0546875 C11.07406223 15.03658523 11.03819065 17.01832981 11 19 C9.68 19 8.36 19 7 19 C5.97519531 19.03480469 5.97519531 19.03480469 4.9296875 19.0703125 C2.95368583 19.1229057 0.97567379 19.06373141 -1 19 C-3 17 -3 17 -3.3125 14.0625 C-3 11 -3 11 -1.7734375 9.3203125 C0.52247625 7.61101989 1.85858712 7.68950379 4.6875 7.8125 C5.49574219 7.83957031 6.30398437 7.86664063 7.13671875 7.89453125 C7.75160156 7.92933594 8.36648437 7.96414063 9 8 C8.34 6.35 7.68 4.7 7 3 C4.36 3 1.72 3 -1 3 C-0.67 2.01 -0.34 1.02 0 0 Z " fill="#080808" transform="translate(207,340)"/>
<path d="M0 0 C3.9375 0.5625 3.9375 0.5625 5.9375 2.1875 C6.9375 4.5625 6.9375 4.5625 6.9375 10.5625 C2.9775 10.5625 -0.9825 10.5625 -5.0625 10.5625 C-3.60961014 15.1466963 -3.60961014 15.1466963 -2.0625 16.5625 C0.60808851 16.70365161 3.26182238 16.60497107 5.9375 16.5625 C5.9375 17.5525 5.9375 18.5425 5.9375 19.5625 C-3.02025891 20.33177319 -3.02025891 20.33177319 -6.6875 17.625 C-8.55467177 13.46629924 -8.8408462 10.04609841 -8.0625 5.5625 C-6.07137209 1.49728052 -4.4130924 0.26007174 0 0 Z " fill="#0B0B0B" transform="translate(431.0625,339.4375)"/>
<path d="M0 0 C3.9375 0.5625 3.9375 0.5625 5.9375 2.1875 C6.9375 4.5625 6.9375 4.5625 6.9375 10.5625 C2.9775 10.5625 -0.9825 10.5625 -5.0625 10.5625 C-3.60961014 15.1466963 -3.60961014 15.1466963 -2.0625 16.5625 C0.60808851 16.70365161 3.26182238 16.60497107 5.9375 16.5625 C5.9375 17.5525 5.9375 18.5425 5.9375 19.5625 C-3.02025891 20.33177319 -3.02025891 20.33177319 -6.6875 17.625 C-8.55467177 13.46629924 -8.8408462 10.04609841 -8.0625 5.5625 C-6.07137209 1.49728052 -4.4130924 0.26007174 0 0 Z " fill="#0B0B0B" transform="translate(380.0625,339.4375)"/>
<path d="M0 0 C2.50041894 0.08168338 3.83455801 0.19140582 6.0625 1.375 C7.58940415 4.33337678 7.24718872 7.04966599 7.0625 10.3125 C3.1025 10.3125 -0.8575 10.3125 -4.9375 10.3125 C-3.9475 12.2925 -2.9575 14.2725 -1.9375 16.3125 C1.0325 16.3125 4.0025 16.3125 7.0625 16.3125 C6.7325 17.3025 6.4025 18.2925 6.0625 19.3125 C4.45917209 19.39371924 2.85465974 19.45179134 1.25 19.5 C-0.08998047 19.55220703 -0.08998047 19.55220703 -1.45703125 19.60546875 C-3.9375 19.3125 -3.9375 19.3125 -5.7109375 18.0390625 C-7.78828155 15.11490304 -7.95068514 11.79997006 -7.9375 8.3125 C-6.6265016 2.86681434 -5.90298156 0.4684906 0 0 Z " fill="#090909" transform="translate(144.9375,339.6875)"/>
<path d="M0 0 C12 0 12 0 17 3 C20.06929923 7.42202989 19.74381139 12.85282516 19 18 C17.14990787 21.6717213 14.95412948 23.68195684 11 25 C7.37 25 3.74 25 0 25 C0 16.75 0 8.5 0 0 Z M2 2 C2 8.93 2 15.86 2 23 C8.84628585 23 10.0698031 22.99111177 15 19 C16.84438013 15.31123973 16.48788734 11.02669687 16 7 C14.11484777 4.42362529 12.80665143 3.40332572 10 2 C7.36 2 4.72 2 2 2 Z " fill="#080808" transform="translate(181,334)"/>
<path d="M0 0 C14.19 0 28.38 0 43 0 C43 2.64 43 5.28 43 8 C28.81 8 14.62 8 0 8 C0 5.36 0 2.72 0 0 Z M2 2 C2 3.65 2 5.3 2 7 C14.87 7 27.74 7 41 7 C41 5.35 41 3.7 41 2 C28.13 2 15.26 2 2 2 Z " fill="#2F7AC5" transform="translate(315,287)"/>
<path d="M0 0 C14.19 0 28.38 0 43 0 C43 2.64 43 5.28 43 8 C28.81 8 14.62 8 0 8 C0 5.36 0 2.72 0 0 Z M2 2 C2 3.65 2 5.3 2 7 C14.87 7 27.74 7 41 7 C41 5.35 41 3.7 41 2 C28.13 2 15.26 2 2 2 Z " fill="#2F7AC4" transform="translate(223,287)"/>
<path d="M0 0 C5.61 0 11.22 0 17 0 C16 7 16 7 15 9 C11.04 9 7.08 9 3 9 C0 3.375 0 3.375 0 0 Z " fill="#307BC5" transform="translate(282,287)"/>
<path d="M0 0 C0.66 0 1.32 0 2 0 C2 0.66 2 1.32 2 2 C2.99 1.34 3.98 0.68 5 0 C7.76020996 -0.37167184 10.18852476 -0.17850636 13 0 C15 2 15 2 15.1953125 5.9140625 C15.18200376 7.48449351 15.15813602 9.05486221 15.125 10.625 C15.11597656 11.42679687 15.10695313 12.22859375 15.09765625 13.0546875 C15.07406223 15.03658523 15.03819065 17.01832981 15 19 C14.34 19 13.68 19 13 19 C12.93941406 18.01257813 12.87882812 17.02515625 12.81640625 16.0078125 C12.73261719 14.72648437 12.64882813 13.44515625 12.5625 12.125 C12.44068359 10.21074219 12.44068359 10.21074219 12.31640625 8.2578125 C12.20793973 5.11699848 12.20793973 5.11699848 11 3 C8.69 3 6.38 3 4 3 C3.67 8.28 3.34 13.56 3 19 C2.01 19 1.02 19 0 19 C0 12.73 0 6.46 0 0 Z " fill="#010101" transform="translate(314,340)"/>
<path d="M0 0 C0.66 0 1.32 0 2 0 C2 0.66 2 1.32 2 2 C2.99 1.34 3.98 0.68 5 0 C7.80590236 -0.42783066 10.1233315 -0.22830702 13 0 C15.52775351 3.79163027 15.22443035 6.80874031 15.125 11.1875 C15.11597656 11.93708984 15.10695313 12.68667969 15.09765625 13.45898438 C15.07412578 15.30612654 15.03825561 17.15310412 15 19 C14.34 19 13.68 19 13 19 C12.93941406 18.01257813 12.87882812 17.02515625 12.81640625 16.0078125 C12.73261719 14.72648437 12.64882813 13.44515625 12.5625 12.125 C12.44068359 10.21074219 12.44068359 10.21074219 12.31640625 8.2578125 C12.20793973 5.11699848 12.20793973 5.11699848 11 3 C9.00045254 2.95745644 6.99958364 2.95919217 5 3 C3.00383446 4.99616554 3.59016573 8.81701963 3.4375 11.5625 C3.39431641 12.27341797 3.35113281 12.98433594 3.30664062 13.71679688 C3.20028223 15.47761912 3.09961154 17.2387832 3 19 C2.01 19 1.02 19 0 19 C0 12.73 0 6.46 0 0 Z " fill="#020202" transform="translate(443,340)"/>
<path d="M0 0 C1.21816406 0.03480469 1.21816406 0.03480469 2.4609375 0.0703125 C3.68683594 0.09738281 3.68683594 0.09738281 4.9375 0.125 C5.87722656 0.15980469 5.87722656 0.15980469 6.8359375 0.1953125 C7.1659375 1.1853125 7.4959375 2.1753125 7.8359375 3.1953125 C4.8659375 2.8653125 1.8959375 2.5353125 -1.1640625 2.1953125 C-0.58963606 4.63809513 -0.58963606 4.63809513 0.8359375 7.1953125 C3.78603123 8.92043715 3.78603123 8.92043715 6.8359375 10.1953125 C7.4959375 10.8553125 8.1559375 11.5153125 8.8359375 12.1953125 C8.50622271 15.49246043 8.2132536 16.8179964 5.8359375 19.1953125 C3.453125 19.390625 3.453125 19.390625 0.7109375 19.3203125 C-0.65417969 19.29324219 -0.65417969 19.29324219 -2.046875 19.265625 C-2.74554688 19.24242187 -3.44421875 19.21921875 -4.1640625 19.1953125 C-3.6690625 17.7103125 -3.6690625 17.7103125 -3.1640625 16.1953125 C-0.8540625 16.1953125 1.4559375 16.1953125 3.8359375 16.1953125 C3.8359375 14.8753125 3.8359375 13.5553125 3.8359375 12.1953125 C2.8871875 11.7415625 1.9384375 11.2878125 0.9609375 10.8203125 C-2.1640625 9.1953125 -2.1640625 9.1953125 -4.1640625 7.1953125 C-4.4140625 4.6953125 -4.4140625 4.6953125 -4.1640625 2.1953125 C-2.1640625 0.1953125 -2.1640625 0.1953125 0 0 Z " fill="#131313" transform="translate(113.1640625,339.8046875)"/>
<path d="M0 0 C0.66 0 1.32 0 2 0 C2.33 0.99 2.66 1.98 3 3 C2.195625 3.804375 1.39125 4.60875 0.5625 5.4375 C-2.88422648 9.27896331 -2.63217937 13.18608863 -2.44140625 18.15234375 C-1.83189746 22.08448453 -0.49580837 23.95823355 2 27 C2 27.99 2 28.98 2 30 C-5.13793103 24.44827586 -5.13793103 24.44827586 -7 20 C-7.7261688 13.67195763 -6.52048099 9.31015695 -3 4 C-2.00950055 2.99058887 -1.01152622 1.98833937 0 1 C0 0.67 0 0.34 0 0 Z " fill="#D0E6F1" transform="translate(415,219)"/>
<path d="M0 0 C1.24910156 -0.00515625 2.49820312 -0.0103125 3.78515625 -0.015625 C6.9375 0.25 6.9375 0.25 8.9375 2.25 C8.34582031 2.61351562 7.75414062 2.97703125 7.14453125 3.3515625 C-0.95474441 8.50444587 -5.04662393 13.04364146 -8.0625 22.25 C-9.0525 22.25 -10.0425 22.25 -11.0625 22.25 C-11.3925 21.59 -11.7225 20.93 -12.0625 20.25 C-9.30633586 12.30365664 -4.16707882 6.54579184 2.9375 2.25 C-1.3525 2.25 -5.6425 2.25 -10.0625 2.25 C-6.37155532 -0.21062979 -4.39205805 -0.01816777 0 0 Z " fill="#A5D6EC" transform="translate(409.0625,255.75)"/>
<path d="M0 0 C0.66 0 1.32 0 2 0 C2 1.65 2 3.3 2 5 C3.65 5 5.3 5 7 5 C7 5.66 7 6.32 7 7 C5.35 7 3.7 7 2 7 C2.33 11.62 2.66 16.24 3 21 C4.32 21.33 5.64 21.66 7 22 C7 22.66 7 23.32 7 24 C4.125 24.125 4.125 24.125 1 24 C-1 22 -1 22 -1.1953125 18.5234375 C-1.18201493 17.14049032 -1.15816232 15.75761346 -1.125 14.375 C-1.11597656 13.66859375 -1.10695313 12.9621875 -1.09765625 12.234375 C-1.07407603 10.48943902 -1.03820461 8.74467705 -1 7 C-1.66 7 -2.32 7 -3 7 C-3 6.34 -3 5.68 -3 5 C-2.34 5 -1.68 5 -1 5 C-0.67 3.35 -0.34 1.7 0 0 Z " fill="#080808" transform="translate(465,335)"/>
<path d="M0 0 C0.66 0 1.32 0 2 0 C2 1.32 2 2.64 2 4 C3.65 4 5.3 4 7 4 C7 4.66 7 5.32 7 6 C5.35 6 3.7 6 2 6 C2.33 10.95 2.66 15.9 3 21 C4.65 21 6.3 21 8 21 C8 21.66 8 22.32 8 23 C4.625 23.1875 4.625 23.1875 1 23 C-1.49118953 19.2632157 -1.2065226 17.25548181 -1.125 12.8125 C-1.10695312 11.54019531 -1.08890625 10.26789063 -1.0703125 8.95703125 C-1.04710937 7.98121094 -1.02390625 7.00539063 -1 6 C-1.66 6 -2.32 6 -3 6 C-3 5.34 -3 4.68 -3 4 C-2.34 3.67 -1.68 3.34 -1 3 C-0.67 2.01 -0.34 1.02 0 0 Z " fill="#161616" transform="translate(225,336)"/>
<path d="M0 0 C1.65 0 3.3 0 5 0 C5 8.58 5 17.16 5 26 C4.01 26 3.02 26 2 26 C1.67 19.07 1.34 12.14 1 5 C0.34 5 -0.32 5 -1 5 C-0.67 3.35 -0.34 1.7 0 0 Z " fill="#252525" transform="translate(80,333)"/>
<path d="M0 0 C8.25 0 16.5 0 25 0 C25 0.33 25 0.66 25 1 C17.41 1 9.82 1 2 1 C2 2.32 2 3.64 2 5 C9.59 5 17.18 5 25 5 C25.33 4.34 25.66 3.68 26 3 C26.33 4.32 26.66 5.64 27 7 C18.09 7 9.18 7 0 7 C0 4.69 0 2.38 0 0 Z " fill="#156ABE" transform="translate(190,272)"/>
<path d="M0 0 C0.66 0 1.32 0 2 0 C2 1.32 2 2.64 2 4 C3.65 4 5.3 4 7 4 C7 4.66 7 5.32 7 6 C5.35 6 3.7 6 2 6 C2.33 10.62 2.66 15.24 3 20 C4.32 20.33 5.64 20.66 7 21 C7 21.66 7 22.32 7 23 C4.125 23.1875 4.125 23.1875 1 23 C-1.49118953 19.2632157 -1.2065226 17.25548181 -1.125 12.8125 C-1.10695313 11.54019531 -1.08890625 10.26789063 -1.0703125 8.95703125 C-1.04710938 7.98121094 -1.02390625 7.00539063 -1 6 C-1.66 6 -2.32 6 -3 6 C-3 5.34 -3 4.68 -3 4 C-2.34 4 -1.68 4 -1 4 C-0.67 2.68 -0.34 1.36 0 0 Z " fill="#141414" transform="translate(127,336)"/>
<path d="M0 0 C7.26 0 14.52 0 22 0 C22 1.32 22 2.64 22 4 C14.74 4 7.48 4 0 4 C0 2.68 0 1.36 0 0 Z " fill="#1F70C1" transform="translate(317,273)"/>
<path d="M0 0 C7.26 0 14.52 0 22 0 C22 1.32 22 2.64 22 4 C14.74 4 7.48 4 0 4 C0 2.68 0 1.36 0 0 Z " fill="#1F70C0" transform="translate(242,273)"/>
<path d="M0 0 C8.58 0 17.16 0 26 0 C25.67 1.65 25.34 3.3 25 5 C24.67 4.01 24.34 3.02 24 2 C16.41 2 8.82 2 1 2 C1 3.32 1 4.64 1 6 C8.59 6 16.18 6 24 6 C24 6.33 24 6.66 24 7 C16.08 7 8.16 7 0 7 C0 4.69 0 2.38 0 0 Z " fill="#196CBF" transform="translate(191,223)"/>
<path d="M0 0 C23.43 0 46.86 0 71 0 C70.34 1.65 69.68 3.3 69 5 C68.505 3.02 68.505 3.02 68 1 C45.56 1 23.12 1 0 1 C0 0.67 0 0.34 0 0 Z " fill="#2A77C4" transform="translate(140,239)"/>
<path d="M0 0 C0.99 0 1.98 0 3 0 C3.33 0.66 3.66 1.32 4 2 C4.66 1.34 5.32 0.68 6 0 C8.625 -0.125 8.625 -0.125 11 0 C9.6100869 2.77982621 7.81341647 2.87463341 5 4 C3.58365167 6.83269666 3.6536995 9.47466438 3.4375 12.625 C3.35371094 13.81351562 3.26992187 15.00203125 3.18359375 16.2265625 C3.12300781 17.14179688 3.06242188 18.05703125 3 19 C2.01 19 1.02 19 0 19 C0 12.73 0 6.46 0 0 Z " fill="#1D1D1D" transform="translate(157,340)"/>
<path d="M0 0 C2.875 -0.1875 2.875 -0.1875 6 0 C8.52775351 3.79163027 8.22443035 6.80874031 8.125 11.1875 C8.11597656 11.93708984 8.10695313 12.68667969 8.09765625 13.45898438 C8.07412578 15.30612654 8.03825561 17.15310412 8 19 C7.01 19 6.02 19 5 19 C4.67 13.72 4.34 8.44 4 3 C2.35 2.67 0.7 2.34 -1 2 C-0.67 1.34 -0.34 0.68 0 0 Z " fill="#181818" transform="translate(410,340)"/>
<path d="M0 0 C1.23556641 0.01740234 1.23556641 0.01740234 2.49609375 0.03515625 C3.32238281 0.04417969 4.14867187 0.05320312 5 0.0625 C5.63808594 0.07410156 6.27617187 0.08570313 6.93359375 0.09765625 C7.55859375 1.97265625 7.55859375 1.97265625 7.93359375 4.09765625 C5.93359375 6.09765625 5.93359375 6.09765625 3.76953125 6.29296875 C2.55136719 6.25816406 2.55136719 6.25816406 1.30859375 6.22265625 C0.49132812 6.20460938 -0.3259375 6.1865625 -1.16796875 6.16796875 C-1.79445313 6.14476562 -2.4209375 6.1215625 -3.06640625 6.09765625 C-3.10912725 4.4315372 -3.10704457 2.7638274 -3.06640625 1.09765625 C-2.06640625 0.09765625 -2.06640625 0.09765625 0 0 Z " fill="#F9F9F9" transform="translate(358.06640625,358.90234375)"/>
<path d="M0 0 C3 0.125 3 0.125 4 1.125 C4.125 4.125 4.125 4.125 4 7.125 C3 8.125 3 8.125 -0.0625 8.1875 C-1.031875 8.166875 -2.00125 8.14625 -3 8.125 C-3.38063221 5.7989143 -3.71269945 3.46444736 -4 1.125 C-3 0.125 -3 0.125 0 0 Z " fill="#ECECEC" transform="translate(360,341.875)"/>
<path d="M0 0 C6.0546875 -0.1953125 6.0546875 -0.1953125 8 0 C10 2 10 2 10.1953125 5.9140625 C10.18200376 7.48449351 10.15813602 9.05486221 10.125 10.625 C10.11597656 11.42679687 10.10695313 12.22859375 10.09765625 13.0546875 C10.07406223 15.03658523 10.03819065 17.01832981 10 19 C9.34 19 8.68 19 8 19 C7.93941406 18.01257813 7.87882812 17.02515625 7.81640625 16.0078125 C7.73261719 14.72648437 7.64882813 13.44515625 7.5625 12.125 C7.44068359 10.21074219 7.44068359 10.21074219 7.31640625 8.2578125 C7.20793973 5.11699848 7.20793973 5.11699848 6 3 C4.02 3 2.04 3 0 3 C0 2.01 0 1.02 0 0 Z " fill="#070707" transform="translate(319,340)"/>
<path d="M0 0 C1.670625 0.061875 1.670625 0.061875 3.375 0.125 C3.5 2.5 3.5 2.5 3.375 5.125 C1.375 7.125 1.375 7.125 -1.75 7.25 C-3.173125 7.188125 -3.173125 7.188125 -4.625 7.125 C-5.25 4.75 -5.25 4.75 -5.625 2.125 C-3.625 0.125 -3.625 0.125 0 0 Z " fill="#E9E9E9" transform="translate(97.625,349.875)"/>
<path d="M0 0 C-0.75 4.75 -0.75 4.75 -3 7 C-5.5625 7.1875 -5.5625 7.1875 -8 7 C-9 6 -9 6 -9.0625 3.4375 C-9.041875 2.633125 -9.02125 1.82875 -9 1 C-6.04335481 -0.4783226 -3.25770263 -0.06032783 0 0 Z " fill="#EDEDED" transform="translate(216,350)"/>
<path d="M0 0 C1.670625 0.061875 1.670625 0.061875 3.375 0.125 C2.625 4.875 2.625 4.875 0.375 7.125 C-2.25 7.25 -2.25 7.25 -4.625 7.125 C-5.25 4.75 -5.25 4.75 -5.625 2.125 C-3.625 0.125 -3.625 0.125 0 0 Z " fill="#F1F1F1" transform="translate(243.625,349.875)"/>
<path d="M0 0 C-0.75 4.75 -0.75 4.75 -3 7 C-5.5625 7.1875 -5.5625 7.1875 -8 7 C-9 6 -9 6 -9.0625 3.4375 C-9.041875 2.633125 -9.02125 1.82875 -9 1 C-6.04335481 -0.4783226 -3.25770263 -0.06032783 0 0 Z " fill="#EFEFEF" transform="translate(346,350)"/>
<path d="M0 0 C-0.75 4.75 -0.75 4.75 -3 7 C-5.5625 7.1875 -5.5625 7.1875 -8 7 C-9 6 -9 6 -9.0625 3.4375 C-9.041875 2.633125 -9.02125 1.82875 -9 1 C-6.04335481 -0.4783226 -3.25770263 -0.06032783 0 0 Z " fill="#EFEFEF" transform="translate(306,350)"/>
<path d="M0 0 C0.99 0.33 1.98 0.66 3 1 C2.67 1.66 2.34 2.32 2 3 C1.34 3 0.68 3 0 3 C0.33 4.65 0.66 6.3 1 8 C3.64 8 6.28 8 9 8 C8.01 9.485 8.01 9.485 7 11 C5.125 11.36328125 5.125 11.36328125 3 11.3125 C2.29875 11.30863281 1.5975 11.30476563 0.875 11.30078125 C-1 11 -1 11 -3 9 C-3.56338028 3.70422535 -3.56338028 3.70422535 -1.5 1.125 C-1.005 0.75375 -0.51 0.3825 0 0 Z " fill="#0B0B0B" transform="translate(337,348)"/>
<path d="M0 0 C0.99 0.33 1.98 0.66 3 1 C2.67 1.66 2.34 2.32 2 3 C1.34 3 0.68 3 0 3 C0.33 4.65 0.66 6.3 1 8 C3.64 8 6.28 8 9 8 C8.01 9.485 8.01 9.485 7 11 C5.125 11.36328125 5.125 11.36328125 3 11.3125 C2.29875 11.30863281 1.5975 11.30476563 0.875 11.30078125 C-1 11 -1 11 -3 9 C-3.56338028 3.70422535 -3.56338028 3.70422535 -1.5 1.125 C-1.005 0.75375 -0.51 0.3825 0 0 Z " fill="#101010" transform="translate(297,348)"/>
<path d="M0 0 C0.66 0.33 1.32 0.66 2 1 C1.67 3.31 1.34 5.62 1 8 C3.64 8 6.28 8 9 8 C8.01 9.485 8.01 9.485 7 11 C5.125 11.36328125 5.125 11.36328125 3 11.3125 C2.29875 11.30863281 1.5975 11.30476563 0.875 11.30078125 C-1 11 -1 11 -3 9 C-3.56338028 3.70422535 -3.56338028 3.70422535 -1.5 1.125 C-1.005 0.75375 -0.51 0.3825 0 0 Z " fill="#101010" transform="translate(238,348)"/>
<path d="M0 0 C3.125 0.375 3.125 0.375 6 1 C6.33 2.65 6.66 4.3 7 6 C3.7 6 0.4 6 -3 6 C-2 2 -2 2 0 0 Z " fill="#D8D8D8" transform="translate(143,342)"/>
<path d="M0 0 C2.625 0.375 2.625 0.375 5 1 C5.33 2.65 5.66 4.3 6 6 C3.03 6 0.06 6 -3 6 C-2 2 -2 2 0 0 Z " fill="#E2E2E2" transform="translate(429,342)"/>
<path d="M0 0 C2.625 0.375 2.625 0.375 5 1 C5.33 2.65 5.66 4.3 6 6 C3.03 6 0.06 6 -3 6 C-2 2 -2 2 0 0 Z " fill="#E2E2E2" transform="translate(378,342)"/>
<path d="M0 0 C0.66 0.33 1.32 0.66 2 1 C2 1.66 2 2.32 2 3 C1.34 3 0.68 3 0 3 C0.33 4.65 0.66 6.3 1 8 C2.65 8.33 4.3 8.66 6 9 C6 9.66 6 10.32 6 11 C2.625 11.125 2.625 11.125 -1 11 C-3 9 -3 9 -3.3125 6.0625 C-3 3 -3 3 -1.5 1.125 C-1.005 0.75375 -0.51 0.3825 0 0 Z " fill="#0E0E0E" transform="translate(207,348)"/>
<path d="M0 0 C-0.45261358 1.43931117 -0.91232979 2.87638999 -1.375 4.3125 C-1.63023437 5.11300781 -1.88546875 5.91351563 -2.1484375 6.73828125 C-3 9 -3 9 -5 12 C-5.99 12 -6.98 12 -8 12 C-7.57405412 10.55903414 -7.13373367 9.12231288 -6.6875 7.6875 C-6.44386719 6.88699219 -6.20023437 6.08648437 -5.94921875 5.26171875 C-4.68640936 2.25280256 -3.45729878 0 0 0 Z " fill="#CCE7F3" transform="translate(405,266)"/>
<path d="M0 0 C0.99 0.33 1.98 0.66 3 1 C3.33 2.32 3.66 3.64 4 5 C-4.58 5 -13.16 5 -22 5 C-22 4.67 -22 4.34 -22 4 C-21.40461426 3.98541748 -20.80922852 3.97083496 -20.19580078 3.95581055 C-17.50486949 3.88145656 -14.81519667 3.78475813 -12.125 3.6875 C-10.71927734 3.65366211 -10.71927734 3.65366211 -9.28515625 3.61914062 C-8.38925781 3.58369141 -7.49335938 3.54824219 -6.5703125 3.51171875 C-5.74289551 3.48553467 -4.91547852 3.45935059 -4.06298828 3.43237305 C-1.60672068 3.16903363 -1.60672068 3.16903363 0 0 Z " fill="#2A77C4" transform="translate(289,242)"/>
<path d="M0 0 C1.11003253 3.3300976 0.9343162 3.97843441 -0.25 7.125 C-0.62898438 8.18074219 -0.62898438 8.18074219 -1.015625 9.2578125 C-2 11 -2 11 -5 12 C-4.32823171 8.19331304 -3.39463134 4.60963407 -2 1 C-1.34 0.67 -0.68 0.34 0 0 Z " fill="#191919" transform="translate(283,340)"/>
<path d="M0 0 C1.98 0 3.96 0 6 0 C4.25 5.75 4.25 5.75 2 8 C0.74335022 5.09399739 0 3.20395416 0 0 Z " fill="#317BC6" transform="translate(288,303)"/>
<path d="M0 0 C0.33 0 0.66 0 1 0 C1 3.3 1 6.6 1 10 C0.01 10 -0.98 10 -2 10 C-2.1953125 3.9453125 -2.1953125 3.9453125 -2 2 C-1.34 1.34 -0.68 0.68 0 0 Z " fill="#E3F4FB" transform="translate(410,229)"/>
<path d="M0 0 C0.556875 0.639375 1.11375 1.27875 1.6875 1.9375 C4.22066561 4.19680987 5.68341424 4.63149047 9 5 C8.67 5.66 8.34 6.32 8 7 C1.25 6.25 1.25 6.25 -1 4 C-0.625 1.875 -0.625 1.875 0 0 Z " fill="#040404" transform="translate(353,361)"/>
<path d="M0 0 C2.12038635 2.61514317 4.13091744 5.19637616 6 8 C3 8 3 8 0.75 6.25 C-1 4 -1 4 -0.75 1.75 C-0.5025 1.1725 -0.255 0.595 0 0 Z " fill="#D8ECF5" transform="translate(412,240)"/>
<path d="M0 0 C2.31 0 4.62 0 7 0 C7.33 0.99 7.66 1.98 8 3 C5.03 2.67 2.06 2.34 -1 2 C-0.67 1.34 -0.34 0.68 0 0 Z " fill="#070707" transform="translate(113,340)"/>
<path d="M0 0 C0.99 0.33 1.98 0.66 3 1 C2.67 1.66 2.34 2.32 2 3 C1.34 3 0.68 3 0 3 C-0.33 4.32 -0.66 5.64 -1 7 C-1.66 5.68 -2.32 4.36 -3 3 C-2.01 2.01 -1.02 1.02 0 0 Z " fill="#202020" transform="translate(337,348)"/>
</svg>
