<?xml version="1.0" encoding="UTF-8"?>
<svg version="1.1" xmlns="http://www.w3.org/2000/svg" width="1200" height="309">
<path d="M0 0 C2.2776477 -0.00961134 4.55435386 -0.04065861 6.83178711 -0.07226562 C20.71309698 -0.17324896 34.02698678 1.79893651 47.31420898 5.92773438 C48.14210937 6.18264648 48.97000977 6.43755859 49.82299805 6.70019531 C73.31337394 14.18456708 95.47118444 27.12717236 112.37670898 45.24023438 C118.60881536 37.13849609 122.98413623 28.4110692 127.37670898 19.24023438 C127.70670898 18.58023437 128.03670898 17.92023437 128.37670898 17.24023438 C129.03670898 17.24023438 129.69670898 17.24023438 130.37670898 17.24023438 C157.90759103 104.01250686 157.90759103 104.01250686 157.68920898 147.92773438 C157.68705383 148.71326691 157.68489868 149.49879944 157.68267822 150.30813599 C157.49264186 193.62708991 143.15382691 231.65059623 113.37670898 263.24023438 C112.66643555 264.0265625 111.95616211 264.81289063 111.22436523 265.62304688 C87.40028143 290.95395307 50.40035094 307.74811945 15.6965332 309.41723633 C-2.07356156 309.70645263 -19.31894147 309.89237497 -36.62329102 305.24023438 C-37.48631836 305.00949219 -38.3493457 304.77875 -39.23852539 304.54101562 C-58.7002646 299.11983845 -76.84346462 289.8594269 -92.62329102 277.24023438 C-93.2065918 276.77504395 -93.78989258 276.30985352 -94.39086914 275.83056641 C-121.45468805 253.98536414 -140.40658671 224.11025386 -148.62329102 190.24023438 C-148.94297852 188.974375 -149.26266602 187.70851562 -149.59204102 186.40429688 C-154.18820893 165.7024012 -153.93285198 139.75489164 -148.62329102 119.24023438 C-148.44056641 118.48419922 -148.2578418 117.72816406 -148.06958008 116.94921875 C-143.45237865 98.22263826 -135.31971752 79.64942696 -123.62329102 64.24023438 C-122.69129883 62.99693359 -122.69129883 62.99693359 -121.74047852 61.72851562 C-96.23951689 28.84569668 -60.42242506 6.53689658 -18.91918945 0.72119141 C-12.63355902 -0.05130009 -6.32339468 0.01604753 0 0 Z M127.37670898 36.24023438 C126.83143555 37.12324219 126.28616211 38.00625 125.72436523 38.91601562 C105.60232012 71.11760273 74.71545657 92.55765371 37.81420898 101.55273438 C25.34376889 104.35546686 12.75391487 105.17818226 0.02172852 105.93432617 C-27.96950295 107.59738351 -55.80995824 110.61998353 -77.62329102 130.24023438 C-78.51661133 131.04074219 -79.40993164 131.84125 -80.33032227 132.66601562 C-90.37701843 142.16296097 -97.02711584 153.2003283 -101.62329102 166.24023438 C-101.94297852 167.11292969 -102.26266602 167.985625 -102.59204102 168.88476562 C-107.46334481 184.64884596 -106.05960907 203.74861157 -99.04516602 218.57617188 C-95.68948602 224.69802052 -91.96458768 229.75511311 -86.62329102 234.24023438 C-86.05570068 234.71871826 -85.48811035 235.19720215 -84.90332031 235.69018555 C-81.05094752 238.51614938 -78.4321877 239.63254829 -73.63891602 238.95117188 C-71.70930435 238.54067758 -69.78748307 238.09249271 -67.87329102 237.61523438 C-66.80618896 237.37377686 -65.73908691 237.13231934 -64.63964844 236.88354492 C-61.62151263 236.18905191 -58.61311231 235.4625621 -55.605896 234.72247314 C-53.54826231 234.22198477 -51.48726621 233.73841418 -49.42456055 233.25927734 C-10.12614126 224.31505724 -10.12614126 224.31505724 26.60229492 208.23779297 C28.49055738 207.1762299 30.40243015 206.16971436 32.32202148 205.16601562 C68.10594742 186.16065988 97.15474371 155.26075288 113.37670898 118.24023438 C113.37670898 144.03761538 91.0045928 174.72391614 73.50170898 192.30273438 C72.46541286 193.28758317 71.4244302 194.26754889 70.37670898 195.24023438 C69.57233398 196.04460937 68.76795898 196.84898437 67.93920898 197.67773438 C67.09358398 198.52335938 66.24795898 199.36898437 65.37670898 200.24023438 C64.83916992 200.81257812 64.30163086 201.38492188 63.74780273 201.97460938 C38.83345629 227.98123405 4.96830247 239.84734132 -28.62329102 250.05273438 C-32.93803269 251.36455503 -37.25010645 252.68468302 -41.56079102 254.00976562 C-43.0355188 254.45350273 -43.0355188 254.45350273 -44.54003906 254.90620422 C-45.89415894 255.32255379 -45.89415894 255.32255379 -47.27563477 255.74731445 C-48.46660767 256.10869255 -48.46660767 256.10869255 -49.68164062 256.47737122 C-51.81619237 257.16676507 -51.81619237 257.16676507 -53.62329102 259.24023438 C-41.74718596 259.28696108 -29.87110345 259.32230553 -17.99492455 259.34385872 C-12.47794682 259.35421289 -6.96103285 259.36821542 -1.4440918 259.39111328 C3.898712 259.41314486 9.24145521 259.42486553 14.58430099 259.42998886 C16.60362067 259.43363109 18.62293774 259.44073961 20.64223099 259.45169449 C54.82213109 259.62943035 93.86700721 257.34150107 119.66186523 231.98632812 C120.55776367 231.08011719 121.45366211 230.17390625 122.37670898 229.24023438 C123.11791992 228.50933594 123.85913086 227.7784375 124.62280273 227.02539062 C141.53331727 209.3237409 149.36478329 182.03062955 149.61499023 158.00976562 C149.62974899 156.84037949 149.62974899 156.84037949 149.64480591 155.64736938 C150.00113275 119.96832302 143.76177874 86.71394519 133.56420898 52.55273438 C133.36953033 51.89863586 133.17485168 51.24453735 132.97427368 50.57061768 C130.88888739 43.0841101 130.88888739 43.0841101 127.37670898 36.24023438 Z M-100.62329102 252.24023438 C-102.63436216 255.74339056 -103.60162197 258.20012001 -103.68579102 262.24023438 C-102.18807949 266.46906691 -100.2185747 269.50632074 -96.62329102 272.24023438 C-92.25695105 273.7762504 -88.72331695 273.55156247 -84.31079102 272.30273438 C-80.66937249 269.50815736 -78.92462559 266.62920749 -77.62329102 262.24023438 C-77.62329102 258.05263906 -78.17220635 255.94019335 -80.43579102 252.42773438 C-83.88278089 248.9807445 -85.57783422 248.34140761 -90.49829102 247.86523438 C-94.85807196 248.00325351 -97.34993214 249.271374 -100.62329102 252.24023438 Z " fill="#5EB831" transform="translate(151.623291015625,-0.240234375)"/>
<path d="M0 0 C5.92716565 4.76119713 11.37491286 9.95012298 16 16 C16.09796875 15.13117188 16.1959375 14.26234375 16.296875 13.3671875 C17.33399349 5.37422255 18.40984746 0.23989376 24.5625 -5.3125 C29.6000843 -8.80005836 35.07771127 -8.61937977 41 -8 C44.4375 -6.25 44.4375 -6.25 47 -4 C47.7425 -3.401875 48.485 -2.80375 49.25 -2.1875 C53.86699917 3.58374896 53.28676496 10.98700557 53.25878906 18.00561523 C53.26404602 19.63645805 53.26404602 19.63645805 53.26940918 21.30024719 C53.2781935 24.88642817 53.27238515 28.47241083 53.265625 32.05859375 C53.26697347 34.56616758 53.26891552 37.07374115 53.27142334 39.58131409 C53.27437088 44.83930461 53.27028473 50.09724416 53.26074219 55.35522461 C53.25110368 60.72733181 53.25102523 66.09932846 53.26074219 71.47143555 C53.27241438 77.98290988 53.27411447 84.4943037 53.26763153 91.00578499 C53.26630752 93.4738371 53.26789843 95.94189272 53.27259064 98.40994072 C53.31121687 124.45804257 52.72034699 151.50842001 33.66796875 171.58203125 C13.78605916 189.60092149 -12.2223188 192.08578325 -37.93066406 191.15966797 C-56.23740575 190.20734463 -81.29684532 185.70315468 -94.6875 172.3125 C-96.6101916 167.45999262 -96.99762696 163.13703434 -96 158 C-93.62250179 153.68982582 -90.53486628 150.89750643 -86 149 C-78.87928924 147.94940333 -74.13529341 150.08914993 -67.88183594 153.21508789 C-50.90097345 161.60570666 -27.82850828 164.76281509 -9.5 159.03515625 C0.71159393 154.80691814 8.50648449 148.37125009 13.22265625 138.23046875 C14.71746237 133.94135169 15.37325528 129.48617275 16 125 C15.64550781 125.47308594 15.29101562 125.94617188 14.92578125 126.43359375 C5.33460419 138.34708971 -8.05016522 145.44192382 -23 148 C-41.97756684 149.7983092 -59.82131797 145.97557891 -75.1875 134.25 C-91.19413386 120.65076387 -101.17140528 102.08527743 -103 81 C-104.29219339 56.11145035 -100.45201149 32.48631583 -83.875 12.8125 C-63.32818878 -8.88549079 -25.91172464 -17.84018102 0 0 Z M-55.25 35.125 C-66.08183153 48.14950998 -68.39854742 62.61803784 -67 79 C-64.99149294 90.97888046 -59.7881218 101.75027604 -50.25 109.5 C-39.81120194 116.45919871 -29.27150185 118.10654574 -17 117 C-6.01033645 114.63735735 3.57522857 108.19141941 10 99 C18.34381534 84.73476732 20.52171043 69.83167769 16.5625 53.6875 C13.12371079 43.22531799 6.65749204 33.58713754 -3 28 C-3.65871094 27.61457031 -4.31742188 27.22914062 -4.99609375 26.83203125 C-21.95513352 17.67481094 -42.01312043 21.233826 -55.25 35.125 Z " fill="#5EB831" transform="translate(1092,85)"/>
<path d="M0 0 C1.00417969 0.48210937 2.00835938 0.96421875 3.04296875 1.4609375 C20.37261613 10.65260041 31.09615982 26.53247077 36.9375 44.95703125 C43.47011814 67.91541518 41.32548628 93.34902744 30.66015625 114.6796875 C26.97315225 121.2366309 22.24799705 126.64323617 17 132 C16.11248047 132.94166016 16.11248047 132.94166016 15.20703125 133.90234375 C11.03446002 137.96438329 6.33278992 140.62100215 1.1875 143.25 C0.54804443 143.5795166 -0.09141113 143.9090332 -0.75024414 144.24853516 C-10.18873716 148.85296531 -19.41941902 150.54351136 -29.875 150.4375 C-30.9271167 150.42992676 -31.9792334 150.42235352 -33.06323242 150.41455078 C-41.03700452 150.24572198 -47.67583321 149.33772744 -55 146 C-55.92296875 145.59910156 -56.8459375 145.19820312 -57.796875 144.78515625 C-66.13477451 140.72219674 -72.5056706 134.4943294 -79 128 C-79.00586624 128.63591568 -79.01173248 129.27183136 -79.01777649 129.92701721 C-79.08184902 136.56239249 -79.16630467 143.19728899 -79.26245117 149.83227539 C-79.29564804 152.30649492 -79.32369618 154.78078922 -79.34643555 157.25512695 C-79.38007701 160.81754334 -79.43239987 164.37927772 -79.48828125 167.94140625 C-79.49786613 169.59336754 -79.49786613 169.59336754 -79.50764465 171.27870178 C-79.63734907 178.09707603 -80.04811729 183.63217018 -84.71875 188.9609375 C-85.60046875 189.66089844 -85.60046875 189.66089844 -86.5 190.375 C-87.38171875 191.09816406 -87.38171875 191.09816406 -88.28125 191.8359375 C-92.71336737 194.83768972 -97.8705328 194.4327988 -103 194 C-108.18479602 192.23912588 -110.86460732 189.4418063 -114 185 C-115.82601179 180.52253089 -116.2526501 176.74043072 -116.26069641 171.92314148 C-116.26452196 171.23424467 -116.26834751 170.54534787 -116.27228898 169.8355754 C-116.28256316 167.53963744 -116.27863753 165.24395219 -116.2746582 162.94799805 C-116.27900784 161.2967099 -116.28419182 159.64542377 -116.29014587 157.99414062 C-116.30352169 153.5167389 -116.304116 149.03942166 -116.30158257 144.56200385 C-116.30051167 140.81963989 -116.30539942 137.07729294 -116.310188 133.33493263 C-116.32127879 124.50232817 -116.32172332 115.66976625 -116.31567383 106.8371582 C-116.30963683 97.73719526 -116.32193908 88.63738704 -116.3432439 79.53745049 C-116.36088241 71.71473828 -116.36685761 63.89207522 -116.36360615 56.06934386 C-116.36179637 51.40161641 -116.36439882 46.73399928 -116.37832069 42.0662899 C-116.39093065 37.67412957 -116.38892507 33.28220959 -116.37590981 28.8900528 C-116.37355117 27.28288249 -116.37625304 25.6756951 -116.38453293 24.06854439 C-116.47393566 5.35821019 -116.47393566 5.35821019 -111.28125 -1.15625 C-110.6934375 -1.5996875 -110.105625 -2.043125 -109.5 -2.5 C-108.9121875 -2.9640625 -108.324375 -3.428125 -107.71875 -3.90625 C-103.45992371 -6.61641218 -98.8652684 -6.56682739 -94 -6 C-88.72223921 -4.29630178 -84.95721992 -1.77704757 -82 3 C-79.90021158 7.86266791 -79.44126402 12.77450505 -79 18 C-78.443125 17.34773438 -77.88625 16.69546875 -77.3125 16.0234375 C-67.79929814 5.12825023 -56.60777001 -3.44943698 -42 -6 C-41.24074219 -6.13277344 -40.48148438 -6.26554687 -39.69921875 -6.40234375 C-26.18271466 -8.22778967 -12.21894786 -5.92721985 0 0 Z M-72.05859375 41.32421875 C-81.02698796 53.68508401 -82.68577656 68.59466799 -80.5 83.3828125 C-77.60947266 96.225951 -70.32865605 107.20112211 -59.1875 114.4375 C-48.04837017 120.55276101 -37.06150309 121.28661622 -25.02734375 118.0390625 C-12.19859604 113.63590522 -5.28608359 105.38159301 0.51953125 93.59765625 C5.8060263 80.75105481 6.09998708 64.94829803 1.32421875 51.89453125 C-4.37001452 39.44784436 -12.21923389 31.08845431 -25 26 C-43.13052014 20.22709807 -60.05046891 27.16794993 -72.05859375 41.32421875 Z " fill="#5EB731" transform="translate(636,83)"/>
<path d="M0 0 C5.14369451 2.86433184 8.01315414 6.70115183 9.75 12.3125 C10.1313074 14.63847511 10.47460254 16.97162158 10.75 19.3125 C11.471875 18.343125 12.19375 17.37375 12.9375 16.375 C21.93927393 5.95412289 34.24570241 0.15938637 47.75 -1.6875 C62.81812174 -2.70651932 77.29473505 -0.87846688 89.75 8.3125 C90.69746094 8.97185547 90.69746094 8.97185547 91.6640625 9.64453125 C102.19032685 17.68993594 107.06450057 31.02872371 109.31150818 43.65481567 C110.30520296 51.94373158 110.07983633 60.33094561 110.0859375 68.66796875 C110.09237442 70.74058624 110.09910343 72.81320284 110.10610962 74.88581848 C110.11803229 79.21190499 110.12179521 83.53791191 110.12060547 87.86401367 C110.12040162 93.39526899 110.14779411 98.92601433 110.18214989 104.45714855 C110.20441941 108.73035514 110.20844312 113.00343849 110.20738602 117.27669716 C110.2097384 119.31596968 110.21854137 121.35524578 110.23405075 123.39446068 C110.2537283 126.24665358 110.24786756 129.09773903 110.23583984 131.94995117 C110.24707886 132.78287689 110.25831787 133.61580261 110.26989746 134.47396851 C110.20056154 140.97061106 108.50136674 146.37117252 103.99609375 151.1875 C98.37971119 154.68105978 93.27943809 155.36500644 86.75 154.3125 C81.87318498 152.62091103 78.59722802 149.58334203 75.75 145.3125 C74.56706898 141.76370694 74.59766703 138.54355274 74.59228516 134.8503418 C74.58720444 134.09210617 74.58212372 133.33387054 74.57688904 132.55265808 C74.56618636 130.90430036 74.55756578 129.25592812 74.55076981 127.60754967 C74.53894833 124.98640354 74.51948123 122.36541979 74.49765015 119.74433899 C74.43618593 112.2907973 74.38226156 104.83726818 74.34863281 97.38354492 C74.32750004 92.82171958 74.29203946 88.26018425 74.24787521 83.69852638 C74.23384782 81.97128566 74.22502325 80.24399355 74.22182083 78.51669884 C74.38479921 57.39880902 74.38479921 57.39880902 64.75 39.3125 C57.33793574 32.84962664 50.11143462 31.02424211 40.4375 31.3125 C32.03492528 32.15866092 24.13324384 35.3401218 18.25 41.5625 C12.31699245 49.43817373 10.60115177 58.56185232 10.6081543 68.1887207 C10.60467987 68.96663971 10.60120544 69.74455872 10.59762573 70.54605103 C10.59029369 72.22985946 10.58493476 73.91367739 10.58133507 75.59749794 C10.57413983 78.2675665 10.55845058 80.93745444 10.53999329 83.60746765 C10.48766692 91.19718964 10.43956449 98.78681046 10.42407227 106.37670898 C10.41396375 111.02516349 10.38456969 115.67315925 10.34275246 120.32143211 C10.33048149 122.08712474 10.32531404 123.85288225 10.32755089 125.6186161 C10.32991678 128.09560361 10.30764248 130.57128539 10.2800293 133.0480957 C10.28993141 134.12928429 10.28993141 134.12928429 10.30003357 135.23231506 C10.20265229 140.58513904 8.77712181 144.86525826 5.75 149.3125 C-0.38689796 154.1969698 -5.63029544 154.95541257 -13.25 154.3125 C-18.53097404 152.51896165 -21.04895251 149.70250798 -24.25 145.3125 C-25.26572975 142.26531076 -25.38538788 140.18450135 -25.40390015 136.99433899 C-25.41250061 135.89110794 -25.42110107 134.78787689 -25.42996216 133.6512146 C-25.43422211 132.4402713 -25.43848206 131.229328 -25.44287109 129.98168945 C-25.45104858 128.7066304 -25.45922607 127.43157135 -25.46765137 126.11787415 C-25.49384567 121.88719795 -25.50917823 117.65651199 -25.5234375 113.42578125 C-25.52879859 111.96763796 -25.5341761 110.50949472 -25.53956985 109.05135155 C-25.56119641 102.98378131 -25.5799313 96.91621371 -25.59119225 90.84861469 C-25.60741976 82.16295664 -25.64057037 73.47774674 -25.69759309 64.79225761 C-25.73634829 58.68002076 -25.7558316 52.56790349 -25.76111281 46.45554703 C-25.76475922 42.80766295 -25.77670331 39.16025714 -25.80921555 35.51250648 C-25.84500936 31.43816303 -25.84091127 27.36477725 -25.83349609 23.2902832 C-25.84990143 22.08946106 -25.86630676 20.88863892 -25.88320923 19.65142822 C-25.83166591 12.72818138 -25.13026798 7.50451181 -20.25 2.3125 C-13.77693722 -2.36139585 -7.30637546 -3.31492961 0 0 Z " fill="#5EB831" transform="translate(867.25,78.6875)"/>
<path d="M0 0 C0.77327637 0.27142822 1.54655273 0.54285645 2.34326172 0.82250977 C8.79001171 3.26255647 14.33509988 6.75979987 18.9375 11.9375 C20.49128434 16.21040695 20.57733252 20.20148323 19.9375 24.6875 C18.15830689 28.45117773 16.64518445 30.19376666 13.25 32.5625 C5.27575401 35.27073449 -0.89324336 33.37690783 -8.25 29.875 C-20.8240886 24.24709125 -34.54013161 19.61830145 -48.046875 24.71875 C-51.22333791 26.2454221 -53.01991764 27.81511856 -55.0625 30.6875 C-56.30032812 34.50155789 -56.48474665 37.65534153 -54.9375 41.4375 C-46.25191151 51.86020619 -30.3001729 54.74868269 -17.92773438 58.76171875 C-3.0129413 63.75710399 11.67600524 70.62122759 20 84.66796875 C24.73621461 94.87056439 24.62217744 108.52637376 21.4375 119.25 C16.23503155 132.12883799 7.43314444 139.97308034 -5.0625 145.5 C-13.88474969 149.17176017 -22.77685619 150.0543836 -32.25 150 C-33.75784058 149.99371582 -33.75784058 149.99371582 -35.29614258 149.98730469 C-43.54085574 149.86313533 -51.08830612 148.89089568 -59.0625 146.6875 C-60.05765625 146.42066406 -61.0528125 146.15382812 -62.078125 145.87890625 C-72.40145725 142.77362583 -88.05188843 137.08034924 -94.875 128.375 C-96.89180588 123.81064985 -97.25443437 120.05503239 -96.5625 115.125 C-94.5942686 110.61446971 -92.47627188 107.94589315 -88.0625 105.6875 C-79.31882515 103.66764333 -73.34208376 107.28225833 -66.0625 111.6875 C-52.36840107 118.98132204 -35.3885195 123.80323062 -20 119.5625 C-15.09772108 117.65453669 -12.40687474 114.37624947 -10.0625 109.6875 C-9.63988371 105.29229057 -9.6742077 101.76240732 -12.45043945 98.14038086 C-21.25930097 90.20133272 -35.46787855 87.40873985 -46.51098633 83.9375 C-75.99761394 74.62114496 -75.99761394 74.62114496 -83.91796875 61.6484375 C-89.54182521 50.66789116 -91.21929529 38.35403322 -87.9375 26.25 C-83.3560043 13.66159126 -75.11134821 4.46160177 -63.0625 -1.3125 C-41.99884265 -9.09366283 -20.86043496 -7.43501926 0 0 Z " fill="#5EB731" transform="translate(485.0625,83.3125)"/>
<path d="M0 0 C3.46237281 1.99619904 5.71450341 3.74592924 7.6875 7.3125 C8.5822867 10.95335621 9.1930531 14.59764236 9.6875 18.3125 C9.99300781 17.81621094 10.29851563 17.31992188 10.61328125 16.80859375 C17.33821934 6.8253758 28.99636227 0.71416783 40.6875 -1.6875 C46.98324881 -2.23587343 52.11546472 -1.96516781 57.6875 1.3125 C61.94588629 5.36073217 63.82515033 9.13793479 64 15 C63.9330297 20.09718359 62.95535642 24.31068653 59.6875 28.3125 C55.39696949 31.66074709 51.18668647 33.2451704 46 34.625 C33.95356068 38.13940991 24.52034778 44.15492715 18.03515625 55.1015625 C10.5319565 69.30077182 9.5665794 82.97982019 9.51171875 98.765625 C9.4885436 101.34896669 9.46442726 103.93230008 9.43945312 106.515625 C9.40303153 110.55338775 9.3732152 114.59099028 9.36157227 118.62890625 C9.34953624 122.54976289 9.30596322 126.46999593 9.26171875 130.390625 C9.26362717 131.59696594 9.26553558 132.80330688 9.26750183 134.04620361 C9.17445157 140.41362596 9.04986897 144.51344291 4.6875 149.3125 C-0.50975003 154.00270125 -4.61551542 154.73888207 -11.453125 154.6484375 C-15.89757269 154.12627561 -19.24835089 152.58820506 -22.3125 149.3125 C-26.63264568 142.39603561 -26.880857 136.71497914 -26.81420898 128.67358398 C-26.81961197 127.42544922 -26.82501495 126.17731445 -26.83058167 124.89135742 C-26.84090509 121.48822103 -26.83341566 118.08606593 -26.81687045 114.68301654 C-26.80295343 111.11086362 -26.80948745 107.53873829 -26.81300354 103.96656799 C-26.81570009 97.97054904 -26.80227693 91.97473092 -26.77905273 85.97875977 C-26.75243423 79.05880201 -26.75070176 72.13917959 -26.7624411 65.21918815 C-26.77324059 58.54495251 -26.76701562 51.87083749 -26.75288582 45.1966114 C-26.74714601 42.36383251 -26.74719279 39.53114247 -26.75195122 36.69836235 C-26.7576336 32.73945417 -26.73835232 28.78087812 -26.71655273 24.82202148 C-26.72105438 23.65351151 -26.72555603 22.48500153 -26.73019409 21.28108215 C-26.66675182 14.34100695 -26.35004203 8.77805932 -21.59375 3.3515625 C-21.0059375 2.88492188 -20.418125 2.41828125 -19.8125 1.9375 C-19.2246875 1.45539063 -18.636875 0.97328125 -18.03125 0.4765625 C-12.69464269 -3.13777609 -5.63844013 -2.61860141 0 0 Z " fill="#5EB831" transform="translate(714.3125,78.6875)"/>
<path d="M0 0 C4.40715325 2.63320706 6.80301573 5.75680569 8.75 10.5 C9.45211479 14.84753663 9.42374622 19.12553232 9.38110352 23.52197266 C9.38825882 24.810728 9.39541412 26.09948334 9.40278625 27.42729187 C9.42121291 30.94183717 9.40841966 34.45561845 9.38869596 37.9701314 C9.37224211 41.65753513 9.38113135 45.34489304 9.38621521 49.03231812 C9.39072756 55.22088755 9.37491717 61.40915387 9.34692383 67.59765625 C9.3148472 74.74378109 9.31490126 81.8893603 9.3321386 89.03552401 C9.3480204 95.92443127 9.34126141 102.81313923 9.32420158 109.70203781 C9.3173444 112.62777412 9.31834963 115.55335004 9.32574654 118.47908401 C9.33485401 122.5653015 9.31083833 126.65068067 9.28344727 130.73681641 C9.28997314 131.94632462 9.29649902 133.15583282 9.30322266 134.4019928 C9.23109189 140.726922 9.07299829 144.72979285 4.75 149.5 C-0.44725003 154.19020125 -4.55301542 154.92638207 -11.390625 154.8359375 C-15.83507269 154.31377561 -19.18585089 152.77570506 -22.25 149.5 C-26.57014568 142.58353561 -26.818357 136.90247914 -26.75170898 128.86108398 C-26.75711197 127.61294922 -26.76251495 126.36481445 -26.76808167 125.07885742 C-26.77840509 121.67572103 -26.77091566 118.27356593 -26.75437045 114.87051654 C-26.74045343 111.29836362 -26.74698745 107.72623829 -26.75050354 104.15406799 C-26.75320009 98.15804904 -26.73977693 92.16223092 -26.71655273 86.16625977 C-26.68993423 79.24630201 -26.68820176 72.32667959 -26.6999411 65.40668815 C-26.71074059 58.73245251 -26.70451562 52.05833749 -26.69038582 45.3841114 C-26.68464601 42.55133251 -26.68469279 39.71864247 -26.68945122 36.88586235 C-26.6951336 32.92695417 -26.67585232 28.96837812 -26.65405273 25.00952148 C-26.65855438 23.84101151 -26.66305603 22.67250153 -26.66769409 21.46858215 C-26.60425182 14.52850695 -26.28754203 8.96555932 -21.53125 3.5390625 C-20.9434375 3.07242188 -20.355625 2.60578125 -19.75 2.125 C-19.1621875 1.64289063 -18.574375 1.16078125 -17.96875 0.6640625 C-12.71316031 -2.89540506 -5.63591335 -2.42761353 0 0 Z " fill="#5EB831" transform="translate(816.25,78.5)"/>
<path d="M0 0 C4.2264014 3.46917115 6.32631491 6.51152869 7.6875 11.8515625 C7.98169513 17.83353021 6.21364865 22.46485401 3.125 27.5390625 C-0.93453755 31.37307018 -5.18180674 32.82587909 -10.6875 33.0390625 C-15.68113288 32.82746789 -19.17011762 31.6051781 -22.7890625 28.01171875 C-27.09793786 23.18210252 -28.49071944 19.56115423 -28.40625 13.078125 C-27.7985621 7.86213716 -25.42552077 3.99973248 -21.8125 0.2890625 C-14.721678 -3.99841127 -7.14850873 -4.49409924 0 0 Z " fill="#5EB831" transform="translate(818.125,21.3359375)"/>
<path d="M0 0 C4.32544718 3.42431235 6.70203285 6.47006517 7.56640625 11.99609375 C7.55455716 23.57265603 7.55455716 23.57265603 4.8125 27.625 C-0.0654354 32.39453683 -3.67218856 33.96700694 -10.44140625 34.4296875 C-15.38797305 34.32395935 -19.133504 33.0991706 -22.79296875 29.71875 C-27.48244171 24.46119362 -28.42318525 20.23506079 -28.33984375 13.234375 C-27.61748411 7.15659048 -24.55856813 3.64730051 -19.9375 -0.125 C-13.98042808 -3.0448777 -5.90226201 -3.02745336 0 0 Z M-21.8125 7.125 C-24.31194649 10.83846335 -25 12.91187763 -25 17.375 C-23.27590063 23.25722138 -20.80477921 25.89920227 -16 29.375 C-12.92805092 30.91097454 -10.39755707 30.6015038 -7 30.375 C-1.66260527 28.38655883 1.45333824 25.46832352 4 20.375 C4.55973414 15.78701528 4.42464043 12.27523771 2.4375 8.0625 C-1.18282694 4.07085748 -4.5769213 1.7211541 -10.0625 0.9375 C-15.16239593 1.69705897 -18.14042052 3.53452229 -21.8125 7.125 Z " fill="#5DB831" transform="translate(1193,79.625)"/>
<path d="M0 0 C10.33619731 -0.3691499 10.33619731 -0.3691499 13.33203125 1.296875 C15 3 15 3 15.4375 6.4375 C14.99490804 10.04146306 14.46704919 11.43015709 12 14 C13.32 16.31 14.64 18.62 16 21 C13.8125 21.4375 13.8125 21.4375 11 21 C9.51217589 19.30830495 8.37215294 17.55777082 7.2109375 15.62890625 C6.00648492 13.68400274 6.00648492 13.68400274 3 13 C3 15.64 3 18.28 3 21 C2.01 21 1.02 21 0 21 C0 14.07 0 7.14 0 0 Z M3 3 C3 5.31 3 7.62 3 10 C7.14093698 10.20970559 7.14093698 10.20970559 11 9 C10.67 7.35 10.34 5.7 10 4 C7.69 3.67 5.38 3.34 3 3 Z " fill="#5EB731" transform="translate(1176,85)"/>
</svg>
